<svg width="26" height="26" viewBox="0 0 26 26" fill="none" xmlns="http://www.w3.org/2000/svg">
<g clip-path="url(#clip0_268_1190)">
<path d="M21.9932 9.55046L21.7319 10.1095C21.5407 10.5188 20.9681 10.5038 20.7985 10.0851L20.5669 9.51312C20.1539 8.49332 19.3836 7.66981 18.4076 7.20477L17.6571 6.84714C17.2513 6.65376 17.2669 6.05625 17.6823 5.88437L18.4076 5.58428C19.4322 5.16032 20.2595 4.34892 20.7186 3.31768L20.9877 2.71322C21.1753 2.29195 21.7635 2.30735 21.9287 2.73786L22.1658 3.35558C22.5703 4.40943 23.3541 5.26302 24.3551 5.74002L25.0636 6.07766C25.4695 6.27104 25.4539 6.86856 25.0384 7.04043L24.2702 7.35829C23.2713 7.77161 22.4589 8.55367 21.9932 9.55046ZM13.4432 3.19636C7.92222 3.05179 3.3294 7.41021 3.18483 12.9312C3.14027 14.6331 3.5236 16.2468 4.23698 17.6691L2.92306 22.9277L8.2432 21.8908C9.6263 22.6777 11.2177 23.1449 12.9196 23.1895C18.4405 23.3341 23.0334 18.9756 23.178 13.4547C23.1885 13.0523 23.1751 12.6546 23.139 12.2627L21.1474 12.4464C21.1764 12.76 21.1871 13.079 21.1787 13.4024C21.063 17.8191 17.3888 21.3059 12.972 21.1902C11.6379 21.1553 10.3639 20.7963 9.23215 20.1524L8.588 19.786L5.62528 20.3634L6.35698 17.4349L6.02474 16.7725C5.44101 15.6086 5.14921 14.3176 5.18415 12.9835C5.2998 8.56676 8.97405 5.08002 13.3908 5.19568C14.0825 5.21379 14.7499 5.3189 15.3835 5.49974L15.9324 3.57652C15.1384 3.34993 14.3043 3.21891 13.4432 3.19636ZM10.1824 13.1144L8.18312 13.0621C8.11083 15.8225 10.29 18.1189 13.0505 18.1912C15.811 18.2635 18.1074 16.0843 18.1797 13.3238L16.1804 13.2715C16.137 14.9278 14.7592 16.2353 13.1029 16.1919C11.4465 16.1485 10.1391 14.7707 10.1824 13.1144Z" fill="#F2F2F2"/>
</g>
<defs>
<clipPath id="clip0_268_1190">
<rect width="24" height="24" fill="white" transform="translate(1.49963 0.882935) rotate(1.5)"/>
</clipPath>
</defs>
</svg>
