<svg width="26" height="26" viewBox="0 0 26 26" fill="none" xmlns="http://www.w3.org/2000/svg">
<g clip-path="url(#clip0_268_734)">
<path d="M21.5291 8.8426L21.2974 9.41454C21.1279 9.83325 20.5553 9.84824 20.364 9.43898L20.1028 8.87994C19.637 7.88316 18.8247 7.10109 17.8257 6.68777L17.0574 6.36991C16.6421 6.19804 16.6264 5.60052 17.0322 5.40714L17.7408 5.0695C18.7419 4.5925 19.5256 3.73891 19.9301 2.68506L20.1672 2.06734C20.3325 1.63683 20.9207 1.62143 21.1081 2.0427L21.3773 2.64717C21.8364 3.6784 22.6637 4.4898 23.6884 4.91376L24.4136 5.21385C24.829 5.38573 24.8447 5.98324 24.4388 6.17662L23.6883 6.53425C22.7123 6.99929 21.942 7.8228 21.5291 8.8426ZM10.6851 3.99669L14.6838 3.89198L14.7361 5.89129L10.7375 5.996C7.42491 6.08274 4.80985 8.83843 4.8966 12.151C4.9911 15.7598 7.51399 18.0501 13.1158 20.4185L13.0509 17.9395L15.0502 17.8872C18.3628 17.8004 20.9779 15.0447 20.8911 11.7322L22.8904 11.6798C23.0061 16.0966 19.5194 19.7708 15.1026 19.8865L15.1942 23.3853C10.1436 21.5169 3.06743 18.7011 2.89728 12.2034C2.78163 7.7866 6.26836 4.11234 10.6851 3.99669Z" fill="#F2F2F2"/>
</g>
<defs>
<clipPath id="clip0_268_734">
<rect width="24" height="24" fill="white" transform="translate(0.610023 1.25952) rotate(-1.5)"/>
</clipPath>
</defs>
</svg>
