<svg width="1440" height="800" viewBox="0 0 1440 800" fill="none" xmlns="http://www.w3.org/2000/svg">
    <path d="M800 -160C800 105.097 1014.9 320 1280 320H1440M800 960C800 694.903 1014.9 480 1280 480H1440M640 -160C640 105.097 425.097 320 160 320H0M640 960C640 694.903 425.097 480 160 480H0"
          stroke="#262626" stroke-width="2"/>
    <path d="M240 400C505.097 400 720 185.097 720 -80C720 185.097 934.903 400 1200 400C934.903 400 720 614.903 720 880C720 614.903 505.097 400 240 400Z"
          stroke="url(#paint0_linear_2001_5287)" stroke-width="2" stroke-linejoin="round"/>
    <mask id="mask0_2001_5287" style="mask-type:alpha" maskUnits="userSpaceOnUse" x="194" y="-4" width="1052"
          height="808">
        <circle cx="558" cy="258" r="262" fill="url(#paint1_radial_2001_5287)"/>
        <circle cx="46" cy="46" r="46" transform="matrix(1 0 0 -1 512 572)" fill="url(#paint2_radial_2001_5287)"/>
        <circle cx="882" cy="542" r="262" fill="url(#paint3_radial_2001_5287)"/>
        <circle cx="46" cy="46" r="46" transform="matrix(1 0 0 -1 836 320)" fill="url(#paint4_radial_2001_5287)"/>
        <circle cx="46" cy="46" r="46" transform="matrix(1 0 0 -1 1154 446)" fill="url(#paint5_radial_2001_5287)"/>
        <circle cx="46" cy="46" r="46" transform="matrix(1 0 0 -1 194 446)" fill="url(#paint6_radial_2001_5287)"/>
    </mask>
    <g mask="url(#mask0_2001_5287)">
        <g style="mix-blend-mode:overlay">
            <path d="M240 400C505.097 400 720 185.097 720 -80C720 185.097 934.903 400 1200 400C934.903 400 720 614.903 720 880C720 614.903 505.097 400 240 400Z"
                  stroke="white" stroke-width="2" stroke-linejoin="round"/>
        </g>
        <g style="mix-blend-mode:plus-lighter" filter="url(#filter0_f_2001_5287)">
            <path d="M240 400C505.097 400 720 185.097 720 -80C720 185.097 934.903 400 1200 400C934.903 400 720 614.903 720 880C720 614.903 505.097 400 240 400Z"
                  stroke="url(#paint7_linear_2001_5287)" stroke-width="2" stroke-linejoin="round"/>
        </g>
        <g style="mix-blend-mode:plus-lighter" filter="url(#filter1_f_2001_5287)">
            <path d="M240 400C505.097 400 720 185.097 720 -80C720 185.097 934.903 400 1200 400C934.903 400 720 614.903 720 880C720 614.903 505.097 400 240 400Z"
                  stroke="url(#paint8_linear_2001_5287)" stroke-width="2" stroke-linejoin="round"/>
        </g>
        <g style="mix-blend-mode:plus-lighter" filter="url(#filter2_f_2001_5287)">
            <path d="M240 400C505.097 400 720 185.097 720 -80C720 185.097 934.903 400 1200 400C934.903 400 720 614.903 720 880C720 614.903 505.097 400 240 400Z"
                  stroke="url(#paint9_linear_2001_5287)" stroke-width="2" stroke-linejoin="round"/>
        </g>
        <g style="mix-blend-mode:plus-lighter" filter="url(#filter3_f_2001_5287)">
            <path d="M240 400C505.097 400 720 185.097 720 -80C720 185.097 934.903 400 1200 400C934.903 400 720 614.903 720 880C720 614.903 505.097 400 240 400Z"
                  stroke="url(#paint10_linear_2001_5287)" stroke-width="2" stroke-linejoin="round"/>
        </g>
        <g style="mix-blend-mode:plus-lighter" filter="url(#filter4_f_2001_5287)">
            <path d="M240 400C505.097 400 720 185.097 720 -80C720 185.097 934.903 400 1200 400C934.903 400 720 614.903 720 880C720 614.903 505.097 400 240 400Z"
                  stroke="url(#paint11_linear_2001_5287)" stroke-width="2" stroke-linejoin="round"/>
        </g>
    </g>
    <defs>
        <filter id="filter0_f_2001_5287" x="235" y="-85" width="970" height="970" filterUnits="userSpaceOnUse"
                color-interpolation-filters="sRGB">
            <feFlood flood-opacity="0" result="BackgroundImageFix"/>
            <feBlend mode="normal" in="SourceGraphic" in2="BackgroundImageFix" result="shape"/>
            <feGaussianBlur stdDeviation="2" result="effect1_foregroundBlur_2001_5287"/>
        </filter>
        <filter id="filter1_f_2001_5287" x="231" y="-89" width="978" height="978" filterUnits="userSpaceOnUse"
                color-interpolation-filters="sRGB">
            <feFlood flood-opacity="0" result="BackgroundImageFix"/>
            <feBlend mode="normal" in="SourceGraphic" in2="BackgroundImageFix" result="shape"/>
            <feGaussianBlur stdDeviation="4" result="effect1_foregroundBlur_2001_5287"/>
        </filter>
        <filter id="filter2_f_2001_5287" x="223" y="-97" width="994" height="994" filterUnits="userSpaceOnUse"
                color-interpolation-filters="sRGB">
            <feFlood flood-opacity="0" result="BackgroundImageFix"/>
            <feBlend mode="normal" in="SourceGraphic" in2="BackgroundImageFix" result="shape"/>
            <feGaussianBlur stdDeviation="8" result="effect1_foregroundBlur_2001_5287"/>
        </filter>
        <filter id="filter3_f_2001_5287" x="207" y="-113" width="1026" height="1026" filterUnits="userSpaceOnUse"
                color-interpolation-filters="sRGB">
            <feFlood flood-opacity="0" result="BackgroundImageFix"/>
            <feBlend mode="normal" in="SourceGraphic" in2="BackgroundImageFix" result="shape"/>
            <feGaussianBlur stdDeviation="16" result="effect1_foregroundBlur_2001_5287"/>
        </filter>
        <filter id="filter4_f_2001_5287" x="175" y="-145" width="1090" height="1090" filterUnits="userSpaceOnUse"
                color-interpolation-filters="sRGB">
            <feFlood flood-opacity="0" result="BackgroundImageFix"/>
            <feBlend mode="normal" in="SourceGraphic" in2="BackgroundImageFix" result="shape"/>
            <feGaussianBlur stdDeviation="32" result="effect1_foregroundBlur_2001_5287"/>
        </filter>
        <linearGradient id="paint0_linear_2001_5287" x1="720" y1="-80" x2="720" y2="880" gradientUnits="userSpaceOnUse">
            <stop stop-color="#1AA2E6"/>
            <stop offset="1" stop-color="#1A5DE6"/>
        </linearGradient>
        <radialGradient id="paint1_radial_2001_5287" cx="0" cy="0" r="1" gradientUnits="userSpaceOnUse"
                        gradientTransform="translate(558 258) rotate(90) scale(262)">
            <stop stop-color="white"/>
            <stop offset="0.25" stop-color="white" stop-opacity="0.9"/>
            <stop offset="0.5" stop-color="white" stop-opacity="0.5"/>
            <stop offset="0.75" stop-color="white" stop-opacity="0.3"/>
            <stop offset="1" stop-color="white" stop-opacity="0"/>
        </radialGradient>
        <radialGradient id="paint2_radial_2001_5287" cx="0" cy="0" r="1" gradientUnits="userSpaceOnUse"
                        gradientTransform="translate(46 46) rotate(90) scale(46)">
            <stop stop-color="white"/>
            <stop offset="0.25" stop-color="white" stop-opacity="0.9"/>
            <stop offset="0.5" stop-color="white" stop-opacity="0.5"/>
            <stop offset="0.75" stop-color="white" stop-opacity="0.3"/>
            <stop offset="1" stop-color="white" stop-opacity="0"/>
        </radialGradient>
        <radialGradient id="paint3_radial_2001_5287" cx="0" cy="0" r="1" gradientUnits="userSpaceOnUse"
                        gradientTransform="translate(882 542) rotate(90) scale(262)">
            <stop stop-color="white"/>
            <stop offset="0.25" stop-color="white" stop-opacity="0.9"/>
            <stop offset="0.5" stop-color="white" stop-opacity="0.5"/>
            <stop offset="0.75" stop-color="white" stop-opacity="0.3"/>
            <stop offset="1" stop-color="white" stop-opacity="0"/>
        </radialGradient>
        <radialGradient id="paint4_radial_2001_5287" cx="0" cy="0" r="1" gradientUnits="userSpaceOnUse"
                        gradientTransform="translate(46 46) rotate(90) scale(46)">
            <stop stop-color="white"/>
            <stop offset="0.25" stop-color="white" stop-opacity="0.9"/>
            <stop offset="0.5" stop-color="white" stop-opacity="0.5"/>
            <stop offset="0.75" stop-color="white" stop-opacity="0.3"/>
            <stop offset="1" stop-color="white" stop-opacity="0"/>
        </radialGradient>
        <radialGradient id="paint5_radial_2001_5287" cx="0" cy="0" r="1" gradientUnits="userSpaceOnUse"
                        gradientTransform="translate(46 46) rotate(90) scale(46)">
            <stop stop-color="white"/>
            <stop offset="0.25" stop-color="white" stop-opacity="0.9"/>
            <stop offset="0.5" stop-color="white" stop-opacity="0.5"/>
            <stop offset="0.75" stop-color="white" stop-opacity="0.3"/>
            <stop offset="1" stop-color="white" stop-opacity="0"/>
        </radialGradient>
        <radialGradient id="paint6_radial_2001_5287" cx="0" cy="0" r="1" gradientUnits="userSpaceOnUse"
                        gradientTransform="translate(46 46) rotate(90) scale(46)">
            <stop stop-color="white"/>
            <stop offset="0.25" stop-color="white" stop-opacity="0.9"/>
            <stop offset="0.5" stop-color="white" stop-opacity="0.5"/>
            <stop offset="0.75" stop-color="white" stop-opacity="0.3"/>
            <stop offset="1" stop-color="white" stop-opacity="0"/>
        </radialGradient>
        <linearGradient id="paint7_linear_2001_5287" x1="720" y1="-80" x2="720" y2="880" gradientUnits="userSpaceOnUse">
            <stop stop-color="#1AA2E6"/>
            <stop offset="1" stop-color="#1A5DE6"/>
        </linearGradient>
        <linearGradient id="paint8_linear_2001_5287" x1="720" y1="-80" x2="720" y2="880" gradientUnits="userSpaceOnUse">
            <stop stop-color="#1AA2E6"/>
            <stop offset="1" stop-color="#1A5DE6"/>
        </linearGradient>
        <linearGradient id="paint9_linear_2001_5287" x1="720" y1="-80" x2="720" y2="880" gradientUnits="userSpaceOnUse">
            <stop stop-color="#1AA2E6"/>
            <stop offset="1" stop-color="#1A5DE6"/>
        </linearGradient>
        <linearGradient id="paint10_linear_2001_5287" x1="720" y1="-80" x2="720" y2="880"
                        gradientUnits="userSpaceOnUse">
            <stop stop-color="#1AA2E6"/>
            <stop offset="1" stop-color="#1A5DE6"/>
        </linearGradient>
        <linearGradient id="paint11_linear_2001_5287" x1="720" y1="-80" x2="720" y2="880"
                        gradientUnits="userSpaceOnUse">
            <stop stop-color="#1AA2E6"/>
            <stop offset="1" stop-color="#1A5DE6"/>
        </linearGradient>
    </defs>
</svg>
