<svg width="16" height="16" viewBox="0 0 16 16" fill="none" xmlns="http://www.w3.org/2000/svg">
<g clip-path="url(#clip0_246_4402)">
<path d="M13.809 5.41874L13.6446 5.79586C13.5243 6.07195 13.1424 6.07195 13.0221 5.79586L12.8578 5.41874C12.5648 4.74632 12.037 4.21094 11.3785 3.91806L10.872 3.69282C10.5982 3.57102 10.5982 3.17254 10.872 3.05075L11.3502 2.8381C12.0256 2.53768 12.5628 1.98249 12.8508 1.28722L13.0196 0.879688C13.1372 0.595661 13.5295 0.595661 13.6471 0.879688L13.8159 1.28722C14.1039 1.98249 14.6411 2.53768 15.3166 2.8381L15.7946 3.05075C16.0685 3.17254 16.0685 3.57102 15.7946 3.69282L15.2882 3.91806C14.6297 4.21094 14.102 4.74632 13.809 5.41874ZM1.33337 2.66667C1.33337 2.29848 1.63185 2 2.00004 2H9.33337V3.33334H3.00351L8.00004 7.77467L10.9321 5.1684L11.818 6.16494L8.00004 9.55867L2.66671 4.8179V12.6667H13.3334V7.33334H14.6667V13.3333C14.6667 13.7015 14.3682 14 14 14H2.00004C1.63185 14 1.33337 13.7015 1.33337 13.3333V2.66667Z" fill="white"/>
</g>
<defs>
<clipPath id="clip0_246_4402">
<rect width="16" height="16" fill="white"/>
</clipPath>
</defs>
</svg>
