<svg width="16" height="16" viewBox="0 0 16 16" fill="none" xmlns="http://www.w3.org/2000/svg">
<g id="road-map-line">
<path id="Vector" d="M2.66665 4.09557V12.6449L6.04315 11.1979L10.0432 13.1979L13.3333 11.7878V3.23842L14.202 2.86613C14.3712 2.79361 14.5672 2.87199 14.6397 3.0412C14.6574 3.08269 14.6666 3.12737 14.6666 3.17251V12.667L9.99998 14.667L5.99998 12.667L1.79795 14.4679C1.62874 14.5404 1.43279 14.462 1.36027 14.2928C1.34248 14.2513 1.33331 14.2066 1.33331 14.1615V4.66699L2.66665 4.09557ZM10.8284 7.49539L7.99998 10.3239L5.17155 7.49539C3.60945 5.93332 3.60945 3.40067 5.17155 1.83857C6.73365 0.276468 9.26631 0.276468 10.8284 1.83857C12.3905 3.40067 12.3905 5.93332 10.8284 7.49539ZM7.99998 8.43826L9.88558 6.55261C10.927 5.51121 10.927 3.82277 9.88558 2.78137C8.84418 1.73998 7.15578 1.73998 6.11436 2.78137C5.07297 3.82277 5.07297 5.51121 6.11436 6.55261L7.99998 8.43826Z" fill="#E6E6E6"/>
</g>
</svg>
