<svg width="44" height="48" viewBox="0 0 44 48" fill="none" xmlns="http://www.w3.org/2000/svg">
<g id="SVG" clip-path="url(#clip0_346_1814)">
<g id="Vector">
<path fill-rule="evenodd" clip-rule="evenodd" d="M6.05332 15.6C6.05332 16.3967 6.21165 17.1033 6.45832 17.715C6.62999 18.1383 6.94665 18.5817 7.31665 18.8567L7.49332 19C6.83499 19 5.00832 19.23 4.61332 19.44C4.81832 19.745 5.47665 20.2117 5.76499 20.4083C6.02665 20.585 6.77665 21.1267 7.09332 21.2C7.08499 21.205 7.07165 21.2033 7.06832 21.215L6.01165 21.7583C5.76832 21.8983 5.12832 22.2033 5.05332 22.48C5.18832 22.5117 5.46332 22.6567 5.61165 22.7217C5.80165 22.805 5.97332 22.865 6.18499 22.9483C6.58499 23.105 6.97332 23.2167 7.41332 23.32L6.60165 24.2283C6.45332 24.4033 6.19499 24.63 6.17332 24.88C6.49499 24.955 6.81665 25.0367 7.17665 25.0767C7.52665 25.115 7.90665 25.1717 8.25332 25.2C8.11999 25.7717 7.82832 26.2167 7.77332 26.88C8.09499 26.88 8.44832 26.9017 8.74999 26.8567C8.91499 26.8317 9.06665 26.8433 9.23165 26.8183C9.39665 26.7933 9.53665 26.76 9.69332 26.76C9.62332 27.5933 9.65832 27.38 9.73332 28.28C10.05 28.2733 11.1083 27.9883 11.3333 27.88C11.5333 28.2967 11.6167 28.8067 11.9333 29.28C12.4483 29.16 12.7983 29.06 13.2133 28.84C13.2567 29.0267 13.55 29.5667 13.6533 29.72C13.755 29.6517 13.7917 29.5917 13.8933 29.52C15.5367 28.3333 17.3 30.49 16.3017 31.2883C16.1683 31.395 15.9167 31.5017 15.74 31.5667C14.65 31.9633 14.36 31.8933 13.8667 33.0533C13.7133 33.4117 13.5 33.885 13.055 33.9217C13.15 34.065 13.3133 34.1217 13.535 34.1217C13.9683 34.1217 14.2617 33.6383 14.935 33.4817C14.935 33.8 14.855 34.1533 14.855 34.4817C14.855 34.76 14.9133 35.0683 14.935 35.3217C15.09 35.285 15.32 35.115 15.4567 35.0433C15.5983 34.9683 15.9017 34.8567 16.095 34.8417C16.015 35.1867 15.9267 35.9717 16.095 36.3217C16.3367 36.16 16.5717 35.9833 16.8633 35.89C18.005 35.53 18.365 35.8417 19.095 35.8417V35.8817C18.74 35.8817 17.975 35.9667 17.975 36.2817C17.975 36.5083 18.1167 36.7267 18.13 36.9667C18.1433 37.2033 18.02 37.45 18.015 37.6817C18.575 37.6817 18.835 37.695 19.29 37.3567C19.4217 37.2583 19.4633 37.1217 19.615 37.0817C19.7567 38.045 19.385 38.02 19.135 38.3617C19.6017 38.3617 20.2117 38.1017 20.335 37.6417H20.415C20.4383 37.9233 20.835 38.415 21.055 38.5617C21.305 38.43 21.7383 38.0483 21.815 37.7617H21.895C21.9717 38.0483 22.405 38.43 22.655 38.5617C22.8783 38.4117 23.2717 37.925 23.295 37.6417H23.375C23.4983 38.1017 24.1083 38.3617 24.575 38.3617C24.3633 38.0733 24.055 38.0367 24.055 37.4417C24.055 37.24 24.0917 37.2633 24.095 37.0817C24.2467 37.1217 24.2733 37.2483 24.3967 37.34C24.8617 37.6867 25.135 37.6817 25.695 37.6817C25.685 37.2583 25.5133 37.1033 25.64 36.6267C25.705 36.385 26.0467 35.8817 24.615 35.8817V35.8417C25.235 35.8417 26.2283 35.4583 27.2583 36.0783C27.4033 36.165 27.4883 36.235 27.615 36.3217C27.7833 35.9717 27.695 35.1867 27.615 34.8417C28.15 34.8867 28.4067 35.235 28.775 35.3217C28.795 35.0833 28.855 34.7333 28.855 34.4817C28.855 34.1533 28.775 33.8 28.775 33.4817C29.47 33.6433 29.7066 34.1217 30.215 34.1217C30.4367 34.1217 30.4817 34.0417 30.655 34.0017V33.9217C29.9217 33.86 29.7783 32.495 29.2 32.0567C28.7217 31.6967 27.9317 31.6833 27.4317 31.305C26.4083 30.535 28.125 28.3433 29.7933 29.5033C29.92 29.5917 29.945 29.6467 30.0567 29.72C30.16 29.5667 30.4533 29.0267 30.4967 28.84C30.9117 29.06 31.2617 29.16 31.7767 29.28C31.895 29.1033 32.015 28.825 32.1033 28.6067L32.3766 27.88C32.6017 27.9883 33.66 28.2733 33.9767 28.28C34.0517 27.37 34.085 27.575 34.0167 26.76L34.925 26.8517C35.2133 26.89 35.5867 26.88 35.9367 26.88C35.8817 26.2233 35.5917 25.7767 35.4567 25.2C36.1433 25.1433 36.8783 25.0333 37.5367 24.88C37.515 24.6217 36.8767 23.9217 36.6467 23.69C36.52 23.5633 36.3917 23.4633 36.2967 23.32C37.34 23.0767 38.4433 22.53 38.6567 22.48C38.585 22.2117 37.965 21.9067 37.725 21.7717C37.53 21.6617 37.375 21.5783 37.1767 21.48L36.6167 21.2C37.025 21.105 38.1517 20.2717 38.52 19.9833C38.645 19.885 38.9817 19.5217 39.0967 19.48C38.9583 19.2917 38.0433 19.19 37.7483 19.1483C37.335 19.0883 36.6867 19 36.2167 19L36.5267 18.75C36.6467 18.64 36.6867 18.5783 36.7883 18.4517C36.9517 18.25 37.1333 18 37.2383 17.7417C37.6617 16.7183 37.7817 15.5167 37.4867 14.4067C37.4533 14.28 37.435 14.1533 37.335 14.0783C37.165 14.8083 35.9833 16.1317 35.4667 16.73C35.35 16.865 35.3033 16.88 35.2933 17.0767C35.25 17.9267 35.1166 18.88 34.7366 19.6C35.14 19.7933 35.5933 19.9667 35.9783 20.1983C36.12 20.2833 36.2317 20.365 36.3767 20.44C36.17 20.7483 35.4 21.5167 35.0167 21.72C35.185 21.9717 35.415 22.2083 35.6267 22.43C35.7633 22.5733 36.16 22.9967 36.1767 23.2L34.5767 23.92C34.6383 24.1817 34.81 24.4767 34.9017 24.755C34.9783 24.9883 35.09 25.5 35.1767 25.68C34.7683 25.6883 34.2383 25.8 33.6967 25.8H33.2967C33.2967 26.7983 33.2483 26.7483 33.1767 27.6C32.66 27.6 31.7783 27.2933 31.4167 27.12C31.3417 27.4417 30.9867 28.3933 30.7367 28.56C30.6617 28.28 29.6933 27.64 29.1367 27.64C28.4233 27.64 28.145 27.8483 27.665 28.3283C27.3817 28.6117 27.14 29.175 27.0233 29.6067C26.635 31.0317 27.475 33.9033 26.3433 34.6867C25.42 35.3267 23.5483 34.405 22.3083 35.4517C22.1717 35.5667 21.94 35.8167 21.8967 36H21.8167C21.7233 35.5983 21.2033 35.2417 20.8417 35.095C19.7167 34.6417 17.435 35.42 16.9517 34.185C16.3967 32.7633 17.3817 29.7 16.0683 28.3483C15.59 27.8567 15.2983 27.64 14.5767 27.64C14.0583 27.64 13.62 27.9117 13.2867 28.23C13.2 28.3133 13.2067 28.3017 13.1117 28.375C13.005 28.4567 13.01 28.4333 12.9767 28.56C12.73 28.395 12.37 27.435 12.2967 27.12C11.935 27.2933 11.0533 27.6 10.5367 27.6C10.465 26.7483 10.4167 26.7983 10.4167 25.8L9.25665 25.76C8.99665 25.7533 8.76665 25.685 8.53665 25.68L8.80165 24.785C8.89999 24.4867 9.07499 24.1883 9.13665 23.92C8.74665 23.7333 8.30999 23.62 7.92332 23.4133C7.79332 23.3433 7.67332 23.2367 7.53665 23.2C7.54832 23.0583 7.56499 23.075 7.63665 22.98C7.93999 22.5833 8.46499 22.065 8.69665 21.72C8.31165 21.5167 7.56332 20.7783 7.33665 20.44L8.97665 19.6C8.61665 18.85 8.41665 18 8.41832 17.1583C8.41832 16.815 8.21499 16.7317 8.02832 16.5083C7.70665 16.125 7.42832 15.7733 7.12499 15.3717C6.93499 15.1183 6.44832 14.39 6.37665 14.08C6.27999 14.15 6.27332 14.2283 6.23332 14.3767C6.11999 14.7933 6.05665 15.15 6.05665 15.6H6.05332Z" fill="#999999"/>
<path fill-rule="evenodd" clip-rule="evenodd" d="M9.65332 19.8C9.36832 19.8667 9.09165 20.0217 8.83999 20.1467C8.70165 20.215 8.59999 20.2583 8.46999 20.3367C8.33165 20.42 8.22665 20.49 8.09332 20.56C8.31665 20.8933 8.69499 21.185 9.02499 21.4283C9.14332 21.5167 9.30165 21.6117 9.37332 21.72C9.21832 21.95 8.74499 22.37 8.50499 22.6517C8.40665 22.7667 8.31999 22.8717 8.25332 23C8.58332 23.2217 9.44665 23.545 9.85332 23.64C9.76665 23.965 9.17999 24.7183 9.13332 25.28C9.36999 25.285 9.72665 25.3533 9.97165 25.3617C10.285 25.3717 10.6183 25.3617 10.9333 25.3617C10.86 26.235 10.895 26.055 10.9733 27.0017C11.5017 26.99 12.1117 26.7267 12.5733 26.4817C12.6683 26.6783 12.715 26.97 12.7883 27.1867C12.8633 27.4067 13.0017 27.62 13.0533 27.8417C13.2133 27.805 13.1783 27.8033 13.285 27.7133C13.8383 27.2433 14.63 27.11 15.31 27.345C15.605 27.4467 15.7933 27.585 16.0083 27.7667C16.225 27.9483 16.3783 28.1667 16.5267 28.4083C16.6117 28.5467 16.655 28.8233 16.8133 28.8817C16.71 28.4367 16.7733 25.0533 16.7733 24.3217C16.7733 24.0833 16.85 23.8817 17.0933 23.8817H26.6133C26.8567 23.8817 26.9333 24.0833 26.9333 24.3217C26.9333 25.0533 26.9967 28.4367 26.8933 28.8817C27.085 28.8117 27.2717 27.735 28.3967 27.345C28.8033 27.205 29.23 27.1667 29.6683 27.3067C29.945 27.395 30.1883 27.5167 30.4 27.695C30.5183 27.795 30.4767 27.8017 30.6533 27.8417C30.7067 27.615 30.8417 27.4133 30.9183 27.1867C30.9917 26.97 31.0383 26.6783 31.1333 26.4817L31.8583 26.7967C32.0667 26.8667 32.4883 26.9967 32.7333 27.0017C32.8117 26.055 32.8467 26.235 32.7733 25.3617C33.2783 25.3617 33.6567 25.41 34.1233 25.3517C34.23 25.3383 34.4517 25.2917 34.5733 25.2817C34.5517 25.0183 34.345 24.65 34.2583 24.4367C34.15 24.1683 33.9267 23.9183 33.8533 23.6417C34.295 23.5383 35.1317 23.2183 35.4533 23.0017C35.3567 22.8183 35.2 22.6683 35.065 22.51C34.8483 22.2533 34.5117 21.9883 34.3333 21.7217C34.485 21.495 35.32 20.9983 35.6133 20.5617L34.8933 20.1617C34.7683 20.1 34.6567 20.0383 34.52 19.975C34.3717 19.9067 34.2267 19.8667 34.0933 19.8017C34.205 19.325 34.7333 19.21 34.7333 16.6017C34.5983 16.6917 34.4583 17.0583 34.3567 17.225C33.9783 17.8433 33.49 18.345 32.9833 18.8517C32.4733 19.3617 31.8983 19.7683 31.3 20.1683C30.2733 20.8567 31.4933 21.6633 31.4933 22.8017C31.4933 23.94 30.3983 24.8817 29.2533 24.8817C28.87 24.8817 28.4233 24.8583 28.085 24.77C27.905 24.7233 27.605 24.6733 27.4933 24.5217C28.005 24.5217 28.4783 24.0883 28.5733 23.6817L28.1333 23.7217C27.8533 23.7217 27.7583 23.62 27.5333 23.6017V23.5217C27.7133 23.4733 27.8883 23.275 27.8933 23.0417C27.5817 23.2067 26.9833 23.295 26.6533 23.0817C26.4583 22.955 26.5967 22.945 26.2767 22.8983C25.595 22.795 24.9 22.49 24.475 21.94C24.3817 21.82 24.2933 21.7567 24.2533 21.6017H24.1733C24.1567 21.8017 24.06 22.0433 24.0133 22.2417C23.9733 22.4067 23.8983 22.7367 23.8933 22.9217C23.6333 22.7833 23.38 22.535 23.1967 22.2983C23.0317 22.0867 22.7583 21.7583 22.6933 21.4817C22.5283 21.525 22.5217 21.625 22.43 21.7783C22.23 22.1133 21.9267 22.5983 21.8933 23.0017H21.8133C21.7967 22.805 21.575 22.3217 21.4933 22.1617C21.4017 21.98 21.2033 21.5333 21.0133 21.4817C20.905 21.9467 20.2233 22.705 19.8133 22.9217C19.81 22.7367 19.7333 22.4067 19.6933 22.2417C19.645 22.0433 19.55 21.8017 19.5333 21.6017H19.4533C19.4 21.7983 19.12 22.0733 18.9683 22.1967L18.2933 22.6417C18.0067 22.7867 17.86 22.8383 17.4633 22.8917C16.985 22.9567 17.1483 23.2017 16.4133 23.2017C16.1783 23.2017 15.9667 23.1233 15.8133 23.0417C15.8183 23.2833 15.9883 23.4717 16.1733 23.5217V23.6017C15.9367 23.6217 15.74 23.7217 15.4133 23.7217C15.275 23.7217 15.2583 23.6917 15.1333 23.6817C15.2283 24.0883 15.7017 24.5217 16.2133 24.5217C16.0383 24.76 15.17 24.8817 14.8933 24.8817C14.1083 24.8817 13.445 24.7767 12.9033 24.2717C12.175 23.595 12.0333 22.71 12.4667 21.775C12.7183 21.23 13.1367 20.67 12.43 20.185C12.2167 20.0383 12.0383 19.935 11.83 19.785C11.625 19.6367 11.47 19.5033 11.27 19.345C10.5183 18.75 9.60832 17.7917 9.17165 16.9233C9.09832 16.7783 9.10999 16.695 8.97332 16.6017C8.97332 17.5817 8.98499 18.2933 9.30999 19.145C9.42665 19.45 9.49332 19.5633 9.65332 19.8017V19.8Z" fill="#999999"/>
<path fill-rule="evenodd" clip-rule="evenodd" d="M19.0533 41.12L18.47 41.8167C17.94 42.525 17.3583 43.61 17.3317 44.5583C17.3 45.6383 17.7967 46.55 18.79 46.9433C19.1517 47.0867 19.4017 47.16 19.8933 47.16C19.6167 45.97 19.4767 45.3817 19.7283 44.115C19.8183 43.6617 19.9733 43.1967 20.1583 42.825C20.2833 42.5733 20.665 41.9233 20.8517 41.7983C20.7 42.4483 20.5933 42.6417 20.4567 43.4433C20.2367 44.7383 20.1617 46.6083 21.1617 47.6083C21.29 47.7367 21.6133 47.9783 21.8183 47.9967C22.015 48.015 22.375 47.7717 22.4833 47.6683C23.5383 46.6783 23.4733 44.7917 23.2533 43.4767C23.1133 42.6383 23.0167 42.5033 22.8533 41.7967C23.305 42.1 23.8417 43.4333 23.9783 44.1117C24.23 45.3767 24.0917 45.9667 23.8133 47.1567C24.8183 47.1567 25.82 46.625 26.1917 45.695C26.7883 44.2033 25.8817 42.615 24.9683 41.4833C24.8633 41.355 24.7317 41.2333 24.6533 41.1183C24.805 41.1533 25.0733 41.3533 25.2017 41.45C25.4883 41.6633 25.88 42.045 26.105 42.3467C26.655 43.0833 27.08 44.0233 27.095 44.9983C27.1017 45.42 26.99 45.5883 26.9717 45.7983C27.0683 45.7517 27.285 45.7367 27.4267 45.6933C28.0317 45.51 28.8617 45.1067 29.235 44.6217C29.39 44.42 29.63 44.1817 29.6917 43.9183C29.49 43.9233 29.44 43.99 29.1867 43.945C28.4817 43.8183 28.5467 42.8617 28.1833 42.1067C27.985 41.695 27.7467 41.645 27.6917 41.4383C27.9733 41.3633 28.2833 40.8417 28.2917 40.4783C27.6 40.64 27.3567 40.7167 26.4667 40.4233C26.17 40.3267 25.955 40.2467 25.675 40.135L24.8917 39.7983C24.7 39.9267 24.6717 39.9383 24.4117 39.9983C24.5167 40.1417 24.58 40.0767 24.8517 40.1983L26.18 40.91C26.4883 41.1183 27.1167 41.5667 27.165 41.9683C27.1917 42.19 27.0967 42.355 26.9717 42.4383C26.94 42.3217 26.7967 42.16 26.715 42.055C26.485 41.76 25.8067 41.1633 25.49 40.96C25.1 40.7117 24.8633 40.5633 24.4217 40.3817C24.1383 40.265 24.2117 40.3983 24.2117 40.7183C23.9717 40.7183 24.025 40.7583 23.8017 40.7317C23.6367 40.7117 23.4583 40.6883 23.3317 40.6783C23.5533 41.01 24.7917 41.97 25.2483 43.4417C25.3367 43.7283 25.39 44.1017 25.1817 44.3667C25.0817 44.495 25.0667 44.4533 24.9317 44.5167C24.77 42.575 23.2733 41.27 23.2117 41.0367C22.9767 41.1 22.9717 41.425 22.6933 41.43C22.5417 41.4333 22.1367 41.2217 22.0117 41.1567C22.0117 41.56 22.06 41.9517 22.09 42.3183C22.1233 42.7317 22.1317 43.13 22.1317 43.5567C22.1317 44.2983 22.2733 45.4483 21.8517 45.7567C21.43 45.4483 21.5717 44.3033 21.5717 43.5567C21.5717 42.6133 21.6917 41.845 21.6917 41.1567C21.56 41.2267 21.1917 41.4167 21.0417 41.4283C20.895 41.44 20.8167 41.355 20.74 41.2683C20.6233 41.1367 20.66 41.0817 20.4917 41.0367C20.4667 41.1317 20.0333 41.6217 19.9317 41.7567C19.7517 41.995 19.5533 42.2833 19.4117 42.5567C19.0833 43.1917 18.835 43.7583 18.7717 44.5167C18.67 44.4683 18.49 44.4567 18.4 44.1283C18.17 43.2917 19.375 41.6917 19.9817 41.0867C20.1217 40.9483 20.2667 40.8333 20.3717 40.6767L19.4917 40.7167C19.4917 40.415 19.6633 40.12 18.8383 40.5833L18.0267 41.0917C17.75 41.2817 17.5517 41.475 17.32 41.705C17.1833 41.8417 16.7833 42.2383 16.73 42.435C16.45 42.2483 16.4667 41.8417 16.7583 41.5433C17.2833 41.0067 18.3183 40.3533 19.055 40.12C19.205 40.0717 19.2117 40.0983 19.2883 39.9933C19.0283 39.9333 19 39.9217 18.8083 39.7933C18.67 39.825 18.565 39.8983 18.4433 39.9483C17.9567 40.1467 17.8283 40.2233 17.235 40.42C16.92 40.5233 16.71 40.555 16.3417 40.6067C15.945 40.6633 15.7517 40.5533 15.41 40.4733C15.4183 40.8367 15.73 41.3583 16.01 41.4333C15.9683 41.5867 15.8583 41.6333 15.76 41.7433C15.6933 41.8183 15.5733 41.995 15.5317 42.075C15.265 42.585 15.2117 43.3717 14.9017 43.725C14.7917 43.85 14.745 43.8917 14.55 43.9333C14.28 43.9917 14.2267 43.9183 14.0117 43.9133C14.1567 44.5383 15.1783 45.2883 15.8283 45.5367C15.9783 45.5933 16.1 45.6333 16.2467 45.6783C16.3633 45.715 16.6433 45.75 16.7317 45.7933C16.7183 45.6433 16.68 45.595 16.65 45.435C16.57 44.9983 16.6167 44.6483 16.715 44.2183C16.89 43.46 17.1383 42.97 17.565 42.3883C17.815 42.0483 18.145 41.7117 18.48 41.4633C18.6133 41.3633 18.895 41.1517 19.0517 41.115L19.0533 41.12Z" fill="#999999"/>
<path fill-rule="evenodd" clip-rule="evenodd" d="M29.1733 34.4C29.1733 35.4267 29.0067 35.6333 28.9733 36.04C28.8033 35.925 28.4517 35.5017 28.0133 35.4C28.0133 35.6717 28.035 35.9617 27.9967 36.2233L27.8533 36.96C27.7333 36.9283 27.4917 36.7333 27.3417 36.6317C27.1417 36.4967 26.9833 36.43 26.7733 36.32C26.7883 36.5 26.805 36.44 26.8983 36.635C27.4317 37.755 27.0117 38.685 27.1167 38.935C27.22 39.18 27.61 39.115 27.935 39.1183L28.8767 39.1767C29.6333 39.2883 30.7417 39.295 31.4067 39.7267C31.7433 39.945 31.6467 40.105 32.0283 40.625C32.1117 40.7383 32.165 40.8267 32.3333 40.8417C32.38 40.6433 32.5317 40.42 32.6617 40.29C32.9117 40.04 33.3967 39.6933 33.5333 40.2817H33.6133C33.63 40.0783 33.89 39.7217 34.0533 39.7217C34.2467 39.7217 34.3583 39.7067 34.5267 39.9683C34.5967 40.0767 34.68 40.2083 34.6933 40.3617H34.7733C34.78 40.2833 34.795 40.2033 34.8283 40.1367C34.985 39.8283 35.3967 40.0633 35.5833 40.23C35.8 40.4233 35.8117 40.5483 35.9333 40.8C36.07 40.7083 36.3567 40.275 36.4517 40.1183C36.825 39.4967 36.6717 39.575 36.8133 39.28H32.0533C31.39 39.28 31.4933 39.45 31.4933 38.4H33.6933V36.12C32.7667 36.1967 31.8217 37.0817 31.5617 38.0283C31.5267 38.1567 31.5667 38.28 31.1733 38.28C30.78 38.28 30.2033 38.145 29.83 38.0633C29.2517 37.9367 28.7333 37.8383 28.7333 37.44C28.7333 37.195 29.0083 36.92 29.2533 36.92C29.53 36.92 29.95 36.99 30.1583 36.945C30.4383 36.8833 30.5983 36.7233 30.7333 36.52C29.9817 36.52 29.8983 36.0567 29.8517 35.3617C29.815 34.8017 29.6683 34.085 29.1333 34.04C29.1367 34.2217 29.1733 34.1983 29.1733 34.4Z" fill="#999999"/>
<path fill-rule="evenodd" clip-rule="evenodd" d="M19.8933 19.6L19.4233 18.95C19.2633 18.7567 19.09 18.49 18.8933 18.36C18.825 18.5033 18.7833 18.6567 18.7067 18.8133L18.245 19.6717C17.98 20.0933 18.28 20.445 17.9883 21.415C17.86 21.8417 17.7883 22 17.5733 22.32C18.0183 22.32 18.3967 22.0717 18.7067 21.8133C18.975 21.59 18.8167 21.7133 19.0433 21.47C19.2217 21.28 19.5133 20.76 19.5333 20.52C19.6633 20.615 19.8183 21.0033 19.9067 21.1867C20.035 21.4533 20.1017 21.6933 20.1733 22C20.3817 21.8467 20.905 20.79 20.9333 20.44H21.0133C21.0483 20.5717 21.7167 21.385 21.8133 21.8H21.8933C21.9417 21.59 22.315 20.99 22.47 20.7767C22.5483 20.6683 22.66 20.5633 22.6933 20.44H22.7733C22.8033 20.79 23.325 21.8467 23.5333 22C23.6017 21.7083 23.6667 21.4683 23.7867 21.2133C23.8717 21.0317 24.045 20.6133 24.1733 20.52C24.2017 20.8633 24.6117 21.45 24.8667 21.7067C24.9383 21.7783 24.9067 21.7383 24.9783 21.795C25.3117 22.0633 25.65 22.32 26.1333 22.32C25.3017 21.0767 25.7483 20.135 25.4783 19.695L25.0133 18.84C24.9383 18.6867 24.8867 18.5117 24.8133 18.36C24.4683 18.5917 24.0417 19.3367 23.8133 19.6C23.8133 19.2133 23.73 18.4483 23.6533 18.12C23.5133 18.1583 23.295 18.34 23.12 18.4267C22.1933 18.8883 22.3267 18.5483 22.0783 19.065C22 19.23 21.8967 19.505 21.8917 19.7183H21.8117C21.8067 19.5033 21.705 19.2283 21.625 19.065C21.4617 18.725 21.5417 18.7917 21.1767 18.6733C20.55 18.4717 20.2067 18.16 20.0517 18.1183C19.975 18.4467 19.8917 19.2117 19.8917 19.5983L19.8933 19.6Z" fill="#999999"/>
<path fill-rule="evenodd" clip-rule="evenodd" d="M15.4933 13.6C15.4533 13.43 15.3517 13.34 15.2633 13.1867C15.1367 12.9633 15.1233 12.915 15.4483 12.9167C15.89 12.9183 16.33 12.92 16.7717 12.92C16.715 12.9683 16.7117 12.9733 16.625 13.0133C15.95 13.3217 16.36 13.02 15.4917 13.6H15.4933ZM14.2933 12.24C14.2633 12.285 14.1733 12.375 14.1733 12.4C14.1733 12.82 14.6683 13.705 14.945 14.0283C15.0233 14.12 15.0617 14.1467 15.1333 14.24C15.3417 14.5133 15.3917 14.4883 15.5633 14.65L16.2433 15.21C16.4017 15.34 16.53 15.435 16.6833 15.57C16.7767 15.6517 16.8183 15.6567 16.9017 15.7517C17.0167 15.8817 16.955 15.915 17.1317 15.9617C17.1317 15.6417 17.31 15.3833 17.3717 15.1217H17.4517C17.5 15.3 17.77 15.54 17.9017 15.6717C18.0633 15.8333 18.2417 16.075 18.5317 16.0817C18.3633 15.36 18.4117 15.5017 18.4117 14.7617C19.0133 15.165 19.61 15.5883 20.475 15.385C20.6533 15.3433 20.69 15.28 20.8517 15.2417V15.1617C20.2883 15.115 19.78 14.6133 19.5317 14.2417C20.075 14.2417 20.1883 14.22 20.6117 14.1217V14.0017C20.3467 13.98 19.9667 13.6933 19.8517 13.5217C20.2817 13.4867 20.825 13.16 21.0117 12.8817C20.9283 12.8417 20.2633 12.8767 20.0917 12.6417C20.4517 12.545 20.7483 11.8617 20.8917 11.5617C20.7283 11.575 20.6917 11.6267 20.5717 11.6817C20.4733 11.7267 20.3533 11.7617 20.2517 11.8017C20.0483 11.8817 19.79 11.9617 19.5483 12.0183C19.0083 12.1433 18.5 12.1717 17.9267 12.2367L14.2933 12.2433V12.24Z" fill="#999999"/>
<path fill-rule="evenodd" clip-rule="evenodd" d="M26.9333 12.92C27.36 12.92 27.7883 12.9233 28.215 12.9183C28.8733 12.91 28.3067 13.1967 28.2117 13.6C27.28 12.9767 27.4117 13.2033 27.025 12.9867C26.9433 12.94 26.975 12.9583 26.9317 12.92H26.9333ZM23.6133 12.64C23.4567 12.855 22.9517 12.8583 22.7333 12.84C22.7633 13.1967 23.5617 13.495 23.8533 13.52C23.7383 13.6917 23.3583 13.9783 23.0933 14V14.12C23.5167 14.2183 23.63 14.24 24.1733 14.24C23.925 14.6117 23.4167 15.1133 22.8533 15.16V15.24C23.0267 15.28 23.195 15.44 23.6533 15.44C24.325 15.44 24.885 15.0333 25.2933 14.76C25.2933 15.5 25.3417 15.3583 25.1733 16.08C25.5517 16.0717 26.215 15.2617 26.2533 15.12H26.3333C26.395 15.3817 26.5733 15.64 26.5733 15.96C26.7433 15.915 26.6817 15.8967 26.785 15.7717C26.8567 15.685 26.915 15.66 27.0017 15.5883L28.1033 14.69C28.2033 14.59 28.2433 14.5767 28.3433 14.49C28.7967 14.0933 29.5333 12.9783 29.5333 12.4C29.5333 12.375 29.4433 12.285 29.4133 12.24C27.78 12.24 25.7033 12.355 24.19 12.0233C23.955 11.9717 23.6883 11.8933 23.4817 11.8117L22.8133 11.56C22.96 11.8633 23.25 12.5433 23.6133 12.64Z" fill="#999999"/>
<path fill-rule="evenodd" clip-rule="evenodd" d="M37.8933 14.16C38.05 14.4867 38.1333 15.3683 38.1733 15.84C38.57 15.575 38.8933 15.1367 39.1833 14.81C39.465 14.4933 39.84 13.96 40.0617 13.6083C40.18 13.42 40.485 12.89 40.5333 12.68C40.6417 12.76 40.7333 12.9767 40.7333 13.16C40.7333 13.7333 40.3333 14.185 40.0717 14.5383C39.975 14.6667 39.925 14.6967 39.8317 14.8183L38.3617 16.1883C37.9683 16.4983 38.2717 16.415 37.87 17.5367C37.82 17.6767 37.7817 17.78 37.7217 17.9083C37.6567 18.0483 37.5883 18.115 37.575 18.2817C37.7067 18.2117 37.815 18.1267 37.935 18.0417L38.9983 17.225C39.6567 16.7067 40.95 15.4783 41.4033 14.63C42.0967 13.3283 42.2833 12.1733 41.6033 10.8167C41.4933 10.595 41.06 9.86667 40.7767 9.84333C40.6583 10.3517 39.7567 11.7133 39.4733 12.14C39.315 12.3783 38.1667 13.9833 37.8967 14.1633L37.8933 14.16Z" fill="#999999"/>
<path fill-rule="evenodd" clip-rule="evenodd" d="M1.69332 12.2C1.69332 13.345 1.76665 13.58 2.29332 14.6C2.36332 14.735 2.43832 14.8383 2.52499 14.9683L3.08332 15.69C3.19665 15.8083 3.28832 15.8933 3.40499 16.01C4.10832 16.7133 4.59332 17.1617 5.37999 17.755L6.13499 18.28C6.12165 18.1183 6.06665 18.0667 6.00165 17.9333C5.86165 17.6483 5.67332 17.08 5.60999 16.765C5.51165 16.27 5.72665 16.4667 4.95165 15.8633L4.16499 15.13C3.71499 14.6817 2.97499 13.82 2.97499 13.2C2.97499 12.9817 3.04665 12.775 3.17499 12.68C3.31165 13.27 4.22332 14.4383 4.64832 14.9667C4.83999 15.205 5.25665 15.655 5.53499 15.84C5.57499 15.3683 5.65832 14.4867 5.81499 14.16C5.67832 14.0683 5.70499 14.0533 5.60332 13.9317C5.01832 13.2333 4.78665 12.9567 4.23999 12.135C3.99499 11.7683 3.75165 11.41 3.53832 11.0367C3.37332 10.7483 3.00665 10.1417 2.93665 9.83833C2.50832 9.87333 1.69665 11.4183 1.69665 12.1983L1.69332 12.2Z" fill="#999999"/>
<path fill-rule="evenodd" clip-rule="evenodd" d="M18.6533 5.32C18.6533 5.85833 18.7167 6.20667 18.8783 6.695C18.9367 6.87 19.1867 7.64 19.3733 7.64H24.3333C24.6133 7.64 25.0533 6.04167 25.0533 5.48C25.0533 5.165 25.02 4.97 24.8267 4.70667C24.4917 4.25667 23.755 3.88 23.1333 3.88C23.1333 5.25667 22.0067 9.585 20.9467 5.90667C20.79 5.36167 20.5733 4.455 20.5733 3.88C19.8417 3.88 18.6533 4.48667 18.6533 5.32Z" fill="#999999"/>
<path fill-rule="evenodd" clip-rule="evenodd" d="M37.5733 18.6V18.68C38.1683 18.68 39.45 19.08 39.4533 19.08C39.8317 19.08 41.3867 17.99 41.8017 17.6283C42.0417 17.42 42.0533 17.3067 42.0533 17.8C42.0533 18.35 41.015 18.8567 40.5733 19.08C39.7833 19.4783 39.78 19.2733 39.4133 19.76C39.2817 19.935 39.1333 20.0733 38.95 20.2167C38.7667 20.3583 38.6433 20.4983 38.445 20.6317L38.0233 20.93C37.9733 20.97 37.9333 21.0033 37.8933 21.04C38.1783 21.0333 38.6533 20.9033 38.9033 20.85C39.9133 20.635 41.605 20.0233 42.3233 19.31C42.4267 19.2067 42.5267 19.1167 42.6217 19.0083C43.65 17.8517 43.72 16.1767 43.0117 14.8383C42.8783 14.9283 42.5167 15.4417 42.1883 15.695C42.0217 15.8233 41.5983 16.24 41.24 16.5067C40.41 17.125 40.075 17.3533 39.1583 17.865C38.9117 18.0033 37.7917 18.5783 37.57 18.5967L37.5733 18.6Z" fill="#999999"/>
<path fill-rule="evenodd" clip-rule="evenodd" d="M0.25332 16.4C0.25332 17.3867 0.25832 17.9133 0.909986 18.7833C1.75165 19.9067 3.44832 20.5617 4.80332 20.85C5.05332 20.9033 5.52832 21.0333 5.81332 21.04L5.28499 20.6483C5.06665 20.5017 4.46332 19.9833 4.30999 19.7833C4.08499 19.4933 4.18165 19.5183 3.80165 19.3717C3.15165 19.1183 3.11165 19.0517 2.55999 18.7733C2.34165 18.6633 2.18499 18.5383 2.01165 18.4017C1.70665 18.1583 1.65332 17.9233 1.65332 17.56C1.65332 17.3117 1.81332 17.5683 2.19499 17.8583C2.57832 18.1467 3.88165 19.0817 4.25332 19.0817C4.25665 19.0817 5.52832 18.6817 6.13332 18.6817V18.6017C5.62499 18.56 3.72165 17.3917 3.13332 17.0017C2.67499 16.6983 2.26832 16.345 1.84832 16.0083C1.50165 15.73 1.20832 15.3717 0.98332 15.1533C0.871653 15.0433 0.79832 14.9133 0.69332 14.8433C0.51832 15.1683 0.25332 15.9083 0.25332 16.4Z" fill="#999999"/>
<path fill-rule="evenodd" clip-rule="evenodd" d="M12.9733 36.52C13.39 37.1433 13.7967 36.92 14.4133 36.92C14.8667 36.92 14.9733 37.2217 14.9733 37.56C14.9733 37.94 12.77 38.32 12.0933 38.32C11.0317 38.32 11.0267 37.52 10.6133 37.52C9.86499 37.52 10.065 38.7567 10.3483 39.105C10.5333 39.335 10.8933 39.3983 10.8933 38.68C10.8933 38.5417 10.8633 38.525 10.8533 38.4C11.0367 38.5233 11.245 38.7583 11.425 38.9083C12.9417 40.1783 11.4467 39.5233 14.5267 39.1933C14.7983 39.165 15.2783 39.1183 15.5717 39.12C15.9067 39.12 16.37 39.1817 16.5333 39.0017C16.65 38.8733 16.6067 38.7267 16.58 38.5533C16.3617 37.1667 16.91 36.5917 16.9333 36.32C16.7367 36.4233 16.5817 36.4867 16.3883 36.615C16.2883 36.6817 16.2183 36.725 16.1267 36.7933C16.0317 36.865 15.9783 36.925 15.8533 36.96C15.8433 36.8417 15.805 36.725 15.78 36.6333C15.7433 36.4917 15.7383 36.4233 15.715 36.2583C15.675 35.9917 15.6933 35.6833 15.6933 35.4C15.5083 35.4433 15.3133 35.5733 15.165 35.6717C14.97 35.8017 14.8967 35.9317 14.7333 36.04C14.7217 35.9083 14.6817 35.7983 14.655 35.6767C14.6267 35.5417 14.6167 35.4533 14.595 35.2967C14.4617 34.39 14.5633 34.51 14.5733 34.0383C14.0383 34.0833 13.8917 34.8 13.855 35.36C13.81 36.055 13.725 36.5183 12.9733 36.5183V36.52Z" fill="#999999"/>
<path fill-rule="evenodd" clip-rule="evenodd" d="M38.0133 21.36C38.065 21.505 38.0683 21.4283 38.35 21.6233C38.49 21.72 38.58 21.795 38.7167 21.8967C39.3717 22.3867 38.965 22.2917 39.535 22.24C40.1033 22.1883 41.165 21.955 41.5733 21.7583C41.5733 22.2083 41.2433 22.4183 40.895 22.52C39.8217 22.8283 39.3617 22.5233 38.965 22.79C38.68 22.9833 37.55 23.395 37.4533 23.4783C37.9083 23.5167 38.235 23.5983 38.8133 23.5983C40.6117 23.5983 42.1233 23.625 43.11 22.135C43.5217 21.5133 43.4933 20.8083 43.4933 20.0783C43.4933 19.865 43.345 20.0283 42.99 20.175C42.125 20.5333 42.0583 20.57 41.0583 20.8833C40.29 21.1233 39.0167 21.3583 38.0133 21.3583V21.36Z" fill="#999999"/>
<path fill-rule="evenodd" clip-rule="evenodd" d="M4.09332 23.6L5.57332 23.56C5.82665 23.55 6.03165 23.4983 6.25332 23.48C6.15499 23.395 5.88332 23.32 5.74999 23.2633C5.56999 23.1867 5.41332 23.1133 5.25165 23.0417C5.07499 22.9633 4.92665 22.915 4.76499 22.8083C4.30499 22.5067 3.98665 22.8367 2.84332 22.53C2.47332 22.43 2.13332 22.2167 2.13332 21.76C2.35332 21.865 4.34665 22.4433 4.62499 22.2133C4.74665 22.1133 4.68999 22.12 4.96665 21.9133L5.62332 21.45C5.69165 21.3883 5.65665 21.455 5.69165 21.3583C4.00165 21.3583 2.84832 20.945 1.44665 20.4833C1.21999 20.4083 1.04665 20.3333 0.851653 20.2383C0.65332 20.14 0.44832 20.0633 0.251653 19.9583C0.251653 21.0633 0.156653 21.9517 1.14332 22.7867C1.90499 23.43 3.03165 23.5983 4.09165 23.5983L4.09332 23.6Z" fill="#999999"/>
<path fill-rule="evenodd" clip-rule="evenodd" d="M18.8133 39.32C18.885 39.5883 19.5017 39.7283 19.8533 39.56C19.7167 40.145 19.7817 39.9767 19.8133 40.36C19.96 40.36 20.0983 40.3683 20.2383 40.345C20.3817 40.3217 20.4633 40.2833 20.6133 40.28C20.62 40.605 20.8517 40.945 21.0533 41.08C21.4317 40.9917 21.56 40.875 21.8533 40.72C22.145 40.875 22.275 40.9917 22.6533 41.08C22.855 40.945 23.0867 40.605 23.0933 40.28C23.2367 40.2917 23.3283 40.3417 23.4583 40.355C23.585 40.37 23.7617 40.36 23.8933 40.36C23.925 39.9767 23.99 40.145 23.8533 39.56C24.1133 39.685 24.3383 39.6517 24.61 39.555C24.7533 39.5033 24.8517 39.4767 24.8933 39.32C24.4417 39.2817 23.9017 38.9633 23.67 38.6633C23.5717 38.5367 23.4533 38.43 23.4133 38.28L22.7333 39C22.6333 38.9517 22.5883 38.9517 22.485 38.8883C22.2917 38.7717 21.95 38.5317 21.8933 38.32H21.8133C21.7267 38.645 21.25 38.8667 20.9733 39L20.2933 38.28C20.19 38.665 19.4333 39.2683 18.8133 39.32Z" fill="#999999"/>
<path fill-rule="evenodd" clip-rule="evenodd" d="M2.60332 31.89L3.12332 31.35C3.23499 31.4267 3.69332 31.8383 3.69332 31.96C3.69332 32.06 3.60832 32.2417 3.55665 32.3033C3.48665 32.3867 3.32665 32.4533 3.21332 32.48L2.60332 31.89ZM2.29332 30.68C2.34332 30.895 2.47332 31.0383 2.49332 31.28C2.36665 31.22 2.01665 31.12 1.94499 31.0233C1.88999 30.9483 1.87999 30.68 2.29332 30.68ZM3.45332 30.88C3.45332 31.5933 2.53999 30.9667 2.89165 30.3933C2.93332 30.3267 2.95499 30.3517 2.95832 30.2717C2.97332 30.0033 2.60165 30.275 2.53332 30.32C2.50332 29.955 2.12165 29.9917 1.80999 30.0367C1.22499 30.12 1.29332 30.2583 1.29332 31C1.29332 31.1883 1.39332 31.305 1.57332 31.32C1.52499 31.5033 1.45332 31.42 1.45332 31.68C1.45332 31.8333 1.44165 31.695 1.49332 31.8C1.70165 31.745 1.63832 31.6 1.97332 31.6C2.40499 31.6 2.70165 32.24 2.17332 32.24C2.03665 32.24 2.11832 32.175 1.95832 32.14C1.79499 32.1033 1.86832 32.25 0.97332 32.04C0.97332 32.5717 1.20999 32.905 1.69332 33.12C2.25165 33.37 2.47665 33.1433 2.77332 33.12C2.77332 33.5283 2.61332 33.56 3.01332 33.56C3.34832 33.56 3.25332 32.9367 3.25332 32.88C3.25332 32.7583 3.32332 32.745 3.41332 32.72C3.50165 32.9033 3.16332 33.835 3.98665 33.3333C4.03999 33.3017 4.33832 33.1433 4.34832 33.135C4.38332 33.1033 4.69499 32.445 4.69499 32.4C4.69499 31.9983 4.27332 32.16 3.93499 32.16C4.00332 31.8683 4.12665 32 4.37499 32C4.62332 32 4.89499 31.8167 4.69499 31.4C4.48499 31.4567 4.68665 31.48 4.41499 31.48C4.09832 31.48 4.66665 31.125 4.22999 30.265C4.04999 29.91 3.73832 29.64 3.21499 29.64C3.23332 29.865 3.33499 29.8467 3.33665 30.2383C3.33999 31.0267 3.45499 30.715 3.45499 30.88H3.45332Z" fill="#999999"/>
<path fill-rule="evenodd" clip-rule="evenodd" d="M25.8133 9.6C25.8133 10.145 25.8883 10.3667 26.025 10.8683C26.06 10.995 26.0633 11.12 26.2133 11.12H29.6933C29.8333 11.12 29.8383 11.025 29.8733 10.9C30.0783 10.1733 30.3383 9.28167 29.6367 8.73667C29.4117 8.56167 29.0283 8.36 28.6533 8.36C28.6533 8.835 28.41 10.6233 27.9733 10.68C27.8417 10.65 27.8267 10.645 27.7467 10.5467C27.68 10.4633 27.645 10.39 27.6067 10.2867C27.405 9.735 27.2117 8.965 27.2117 8.36167C26.5767 8.375 25.8117 8.92833 25.8117 9.60167L25.8133 9.6Z" fill="#999999"/>
<path fill-rule="evenodd" clip-rule="evenodd" d="M13.6133 9.64C13.6133 10.0433 13.64 10.1383 13.7333 10.52C13.7633 10.6433 13.79 10.7367 13.8267 10.8667C13.8617 10.9933 13.865 11.1183 14.015 11.1183H17.495C17.67 11.1183 17.7017 10.8167 17.7683 10.55C17.9317 9.88667 18.0383 9.22667 17.445 8.72833C17.2583 8.57167 16.815 8.365 16.4967 8.35667C16.4967 9.28667 15.8467 12.1367 15.24 9.73333C15.1167 9.24167 15.0567 8.91667 15.0567 8.35667C14.435 8.35667 13.6167 8.875 13.6167 9.63667L13.6133 9.64Z" fill="#999999"/>
<path fill-rule="evenodd" clip-rule="evenodd" d="M40.1333 24.92C40.0733 25.6517 38.7867 25.3867 38.2567 25.2767C37.6767 25.1567 38.03 25.1983 37.15 25.3767C36.8767 25.4317 36.5867 25.4617 36.3333 25.52C36.445 25.6717 37.6933 25.97 37.8767 26.0167C38.8667 26.265 40.1883 26.5217 41.0933 25.8817C41.615 25.5117 41.9967 25.0183 42.165 24.3933C42.3583 23.68 42.3817 24.1217 40.2517 24.1217C39.45 24.1217 38.7983 24.0583 38.04 23.9333L37.3717 23.8017L37.9617 24.6517C38.0667 24.8033 38.0533 24.7817 38.2733 24.82C38.8967 24.9267 39.4133 24.9217 40.1317 24.9217L40.1333 24.92Z" fill="#999999"/>
<path fill-rule="evenodd" clip-rule="evenodd" d="M3.45332 24.12C3.01665 24.12 2.13332 24.0833 1.75332 24.0167C1.63332 23.995 1.50665 23.9467 1.47499 24.0167C1.45665 24.0567 1.51499 24.2967 1.53165 24.3617C1.82499 25.4883 2.77332 26.2817 4.05332 26.2817C4.67665 26.2817 5.30832 26.1483 5.82999 26.0183L7.01332 25.6817C7.15832 25.6433 7.29665 25.6267 7.37332 25.5217L6.18999 25.305C5.46332 25.1467 6.13499 25.1683 5.21332 25.3217C4.88332 25.3767 4.21499 25.5 3.90332 25.35C3.74332 25.2733 3.58999 25.1283 3.57332 24.92C4.27665 24.92 4.78499 24.925 5.39665 24.8233C5.60832 24.7883 5.62332 24.8133 5.72665 24.6733C5.79499 24.5817 5.84332 24.4867 5.91665 24.3833C6.02999 24.22 6.30332 23.91 6.33332 23.8C6.19499 23.8117 5.41332 24.0017 4.96999 24.0367C4.46165 24.0767 3.99832 24.12 3.45332 24.12Z" fill="#999999"/>
<path fill-rule="evenodd" clip-rule="evenodd" d="M3.17332 26.96C3.21665 27.4767 4.41665 28.72 5.33332 28.72C6.59332 28.72 7.60165 28.1483 8.59665 27.5433C8.72665 27.465 8.85999 27.3917 8.93332 27.28L8.01332 27.32C7.34665 27.32 7.88832 27.1567 7.23999 27.5067C6.79499 27.7483 6.00499 27.9883 5.69332 27.4C6.12165 27.39 6.69999 27.16 7.04165 27.0283C7.43499 26.8783 7.30499 26.94 7.39665 26.5033C7.45332 26.2383 7.51665 26.0383 7.57332 25.8C6.39332 26.4233 4.48332 26.96 3.17332 26.96Z" fill="#999999"/>
<path fill-rule="evenodd" clip-rule="evenodd" d="M38.0133 27.4C37.7067 27.98 36.935 27.7533 36.4933 27.52C35.805 27.1583 36.3633 27.32 35.6133 27.32C35.275 27.32 35.105 27.28 34.7733 27.28C35.025 27.655 37.1883 28.72 38.1333 28.72C38.9133 28.72 39.1283 28.55 39.71 28.0967C39.9283 27.9267 40.0083 27.8183 40.1783 27.605C40.2767 27.4817 40.5167 27.1333 40.5317 26.9583C39.625 26.9583 38.9 26.76 38.155 26.575C37.56 26.4267 36.6817 26.09 36.1317 25.7983L36.37 26.84C36.4717 27.0833 37.77 27.3933 38.0117 27.3983L38.0133 27.4Z" fill="#999999"/>
<path fill-rule="evenodd" clip-rule="evenodd" d="M23.2533 15.84C23.0583 16.2083 22.885 16.5217 22.715 16.9417C22.6133 17.1933 22.3383 17.9617 22.3333 18.24C22.9483 18.0967 23.47 17.67 23.9333 17.36C23.9983 17.6383 24.0933 18.0717 24.0933 18.4C24.3 18.345 24.7883 17.5917 25.0133 17.44C25.0917 17.7733 25.495 19.1333 25.8117 19.385C25.8983 19.4533 25.775 19.4267 25.8533 19.4V19.1233C25.825 17.6183 26.2533 16.91 26.2533 16.76C26.2533 16.055 26.2017 16.2517 26.1733 15.92C25.9983 15.9667 26.105 16.0067 25.8767 16.1833C25.4567 16.51 25.135 16.56 24.5333 16.56C24.5683 16.4317 24.8967 15.8833 24.9333 15.44C24.6083 15.6117 24.695 15.66 24.19 15.7767C23.8933 15.845 23.5417 15.9067 23.2533 15.84Z" fill="#999999"/>
<path fill-rule="evenodd" clip-rule="evenodd" d="M19.1733 16.56C18.6167 16.56 18.0517 16.4783 17.7067 16.0667C17.5983 15.9367 17.7117 15.9667 17.5333 15.92C17.5067 16.2333 17.3417 16.5583 17.5383 17.035C17.94 18.0083 17.8333 19.3617 17.8533 19.4C17.9 19.4167 17.8533 19.47 17.99 19.26C18.335 18.725 18.5483 18.0617 18.6933 17.44C18.9933 17.64 19.4117 18.3467 19.6133 18.4C19.6133 18.0717 19.7083 17.6383 19.7733 17.36C20.2817 17.7 20.75 18.095 21.3733 18.24C21.36 17.6367 20.7317 16.3667 20.4533 15.84C20.165 15.9067 19.8133 15.845 19.5167 15.7767C19.0083 15.6583 19.1 15.6133 18.7733 15.44C18.7883 15.6167 18.88 15.8817 18.9383 16.035L19.1733 16.56Z" fill="#999999"/>
<path fill-rule="evenodd" clip-rule="evenodd" d="M5.65332 29.32C5.71499 29.5867 6.14665 29.9833 6.36499 30.1283C7.68832 31.0117 9.03332 30.2867 10.0633 29.3283C10.145 29.2517 10.16 29.255 10.2417 29.1867C10.3817 29.0717 10.415 28.975 10.5433 28.8483C10.6567 28.735 10.7683 28.6467 10.8133 28.4783C10.6017 28.5283 10.415 28.595 10.1783 28.6433C9.83332 28.7117 9.79332 28.6283 9.56332 28.8683C9.42665 29.01 9.30499 29.1433 9.09499 29.2033C8.83832 29.2783 8.65332 29.1783 8.53332 28.9983C8.72332 28.9483 9.12165 28.65 9.24832 28.51C9.37332 28.3717 9.30499 28.4267 9.25999 28.0717C9.23165 27.8517 9.21332 27.72 9.21332 27.4783C9.08832 27.5617 9.01165 27.665 8.86999 27.775C8.03499 28.4233 6.70165 29.23 5.65332 29.3183V29.32Z" fill="#999999"/>
<path fill-rule="evenodd" clip-rule="evenodd" d="M35.1733 29C34.735 29.655 34.11 28.7883 33.97 28.7233C33.8667 28.6767 33.5833 28.6567 33.43 28.6233C33.225 28.5767 33.0717 28.5217 32.8933 28.48C32.9333 28.63 33.3783 29.115 33.4433 29.17C33.5233 29.24 33.5433 29.24 33.6233 29.31C34.6667 30.2317 35.9667 31.0467 37.3417 30.1283C37.5583 29.9833 37.99 29.5867 38.0533 29.32C37.0367 29.235 35.6767 28.4417 34.8583 27.795C34.7233 27.6883 34.6133 27.5617 34.4933 27.48C34.4933 27.7967 34.455 28 34.41 28.2833C34.3867 28.4317 34.3683 28.4033 34.44 28.4933C34.5533 28.6367 34.99 28.9517 35.1733 29Z" fill="#999999"/>
<path fill-rule="evenodd" clip-rule="evenodd" d="M13.5733 13.12C13.5867 13.2883 13.6183 13.2517 13.6533 13.4C13.51 13.3317 13.22 13.36 13.0133 13.36C13.155 13.1467 13.23 13.12 13.5733 13.12ZM11.9733 15.48C12.1817 14.5867 13.535 14.465 14.385 14.6283C14.61 14.6717 14.8733 14.76 15.0933 14.76C15.0483 14.59 15.03 14.6517 14.905 14.5483L14.3733 13.88C14.23 13.6617 13.88 13.0667 13.8533 12.76C13.3533 12.76 12.9317 12.7917 12.5683 12.915C12.2367 13.0267 11.8383 13.235 11.6517 13.4783C10.9433 14.4083 11.7583 15.4217 11.9733 15.48Z" fill="#999999"/>
<path fill-rule="evenodd" clip-rule="evenodd" d="M30.0533 13.4C30.0883 13.2517 30.12 13.2883 30.1333 13.12C30.4767 13.12 30.5517 13.1467 30.6933 13.36C30.55 13.36 30.1083 13.3367 30.0533 13.4ZM28.6133 14.76C28.95 14.76 29.3133 14.56 30.0933 14.56C30.8733 14.56 31.5933 14.8783 31.7333 15.48C31.945 15.4233 32.7583 14.42 32.0717 13.5017C31.8683 13.23 31.5 13.045 31.1683 12.925C30.7917 12.79 30.36 12.76 29.8533 12.76C29.8283 13.0567 29.4967 13.6317 29.35 13.8567L28.825 14.5317C28.6483 14.6967 28.6533 14.6117 28.6133 14.76Z" fill="#999999"/>
<path fill-rule="evenodd" clip-rule="evenodd" d="M7.21332 9.84C7.21332 10.6317 8.17332 11.0217 8.17332 12.36C8.17332 12.69 7.97665 12.835 7.93332 13C8.19832 12.9783 8.51165 12.7483 8.57332 12.52C8.84832 12.705 9.05332 13.3633 9.05332 13.84H9.13332C9.26499 13.2767 9.37332 13.3667 9.37332 12.6C9.37332 12.1067 9.11665 11.6033 8.93165 11.2817C8.61499 10.7333 8.37332 10.5 8.37332 9.88C8.37332 9.60167 8.63332 9.51 8.73332 9.36C8.33165 9.36 8.13665 9.295 7.77165 9.35833C7.51165 9.40333 7.21332 9.55167 7.21332 9.84Z" fill="#999999"/>
<path fill-rule="evenodd" clip-rule="evenodd" d="M34.9733 9.36C35.1717 9.655 35.3333 9.46667 35.3333 10.08C35.3333 10.7783 34.3333 11.3917 34.3333 12.8C34.3333 13.2317 34.495 13.5 34.5733 13.84H34.6533C34.6533 13.3633 34.8583 12.705 35.1333 12.52C35.195 12.7483 35.5083 12.9783 35.7733 13C35.6933 12.7017 35.1533 12.3367 35.96 10.9867C36.1983 10.5867 37.0533 9.55 35.935 9.35833C35.57 9.295 35.375 9.36 34.9733 9.36Z" fill="#999999"/>
<path fill-rule="evenodd" clip-rule="evenodd" d="M21.8533 6.72C22.32 6.72 22.835 4.245 22.68 3.89333C22.4033 3.26333 21.3633 3.225 21.0383 3.865C20.84 4.25667 21.42 6.71833 21.8517 6.71833L21.8533 6.72Z" fill="#999999"/>
<path fill-rule="evenodd" clip-rule="evenodd" d="M9.33332 30.96C9.34499 31.1083 9.36499 31.1117 9.46665 31.1867C9.54665 31.245 9.62665 31.2933 9.71999 31.3333C10.2583 31.565 10.9033 31.5183 11.4183 31.2867C12.0133 31.0183 12.6683 29.97 12.7717 29.52C12.18 29.805 12.105 29.5633 11.8517 29.92C11.675 30.1683 11.155 30.2383 11.365 29.92C11.4217 29.835 11.4767 29.76 11.5317 29.68C11.46 29.545 11.4217 29.4567 11.355 29.2967L11.1717 28.88C11.0817 28.945 10.8783 29.3367 10.8 29.4683C10.7283 29.5867 10.68 29.64 10.6033 29.7517C10.535 29.85 10.46 29.9617 10.3817 30.05C10.1467 30.3133 9.64832 30.8767 9.33165 30.96H9.33332Z" fill="#999999"/>
<path fill-rule="evenodd" clip-rule="evenodd" d="M32.1733 29.68C32.4517 30.0967 32.53 30.12 32.1333 30.12C32.05 30.12 31.9183 30.0067 31.87 29.9433C31.7517 29.7867 31.8333 29.7967 31.64 29.7333C31.3917 29.6517 31.145 29.62 30.935 29.5183C31.0383 29.96 31.6833 30.9967 32.2617 31.2717C33.095 31.67 34.3367 31.4317 34.375 30.9583C33.9583 30.8467 33.18 29.91 32.9217 29.4917C32.8517 29.3783 32.8083 29.3 32.7417 29.1917C32.6667 29.0683 32.6367 28.9533 32.535 28.8783L32.175 29.6783L32.1733 29.68Z" fill="#999999"/>
<path fill-rule="evenodd" clip-rule="evenodd" d="M7.93332 37.04C7.87832 37.2783 7.91999 37.28 8.21332 37.28C8.28499 37.5867 8.56165 37.9933 8.89332 38C8.68832 38.4283 8.92165 38.5283 9.13999 38.2467C9.38999 37.9233 9.63832 37.8017 9.69332 37.6C9.51999 37.4833 9.46665 37.4833 9.29332 37.6C9.22665 37.4617 9.22999 37.4167 9.12332 37.29C8.69832 36.7883 8.62165 37.1233 8.53832 36.835C8.47832 36.6267 8.56832 36.575 8.29499 36.64C8.26832 36.3117 7.61665 35.7817 7.38499 35.55C7.09499 35.2617 5.85999 33.9233 5.50499 34.2483C5.21999 34.51 5.90665 35.1817 6.14665 35.4283C6.22665 35.51 6.22665 35.525 6.28999 35.605L7.50832 36.7867C7.68665 36.94 7.75665 37.0233 7.93665 37.0383L7.93332 37.04Z" fill="#999999"/>
<path fill-rule="evenodd" clip-rule="evenodd" d="M29.7733 11.88C30.585 11.88 31.025 11.6 31.46 11.0467C32.0867 10.25 31.8233 9.605 32.6433 8.87C32.8 8.73 32.9867 8.65833 33.1733 8.56C33.1 8.28667 32.2133 7.84 31.9733 7.84C31.29 7.84 31.2933 9.49333 31.125 10.1133C31.01 10.5383 30.8783 10.8567 30.6217 11.17C30.3717 11.4767 30.2833 11.535 29.955 11.6633C29.735 11.7483 29.865 11.6883 29.7733 11.8817V11.88Z" fill="#999999"/>
<path fill-rule="evenodd" clip-rule="evenodd" d="M10.5333 8.56C11.1383 8.88 11.4683 9.13333 11.72 9.89333C11.8033 10.1433 11.8267 10.305 11.9333 10.52C12.3433 11.3483 12.91 11.88 13.9333 11.88C13.845 11.6967 13.965 11.7583 13.78 11.6733C13.5 11.545 13.4183 11.5817 13.1017 11.1917C12.8317 10.8617 12.7233 10.6133 12.5883 10.145C12.2333 8.90333 12.5683 6.98333 10.7833 8.29167C10.6667 8.37833 10.5733 8.40833 10.5317 8.56H10.5333Z" fill="#999999"/>
<path fill-rule="evenodd" clip-rule="evenodd" d="M34.5733 38.4H36.7733C36.7733 37.83 36.34 37.185 36.0433 36.89C35.7233 36.57 35.1433 36.1683 34.5733 36.12V38.4Z" fill="#999999"/>
<path fill-rule="evenodd" clip-rule="evenodd" d="M11.7333 16.52C11.3733 16.52 11.5117 16.5 11.2533 16.44C11.33 16.7283 11.6933 17 12.1333 17C12.4033 17 12.5317 16.9233 12.72 16.8267C12.9983 16.685 14.0083 16.0383 14.1733 16C14.1117 16.1283 14.1117 16.4317 14.1733 16.56C14.25 16.5317 14.4533 16.24 15.04 15.9467C15.715 15.6083 15.96 15.7017 16.1733 15.6C16.1233 15.5317 15.4233 14.96 15.3733 14.96C14.6817 14.96 13.2983 15.85 12.7217 16.1883C12.4817 16.3283 12.0833 16.52 11.7333 16.52Z" fill="#999999"/>
<path fill-rule="evenodd" clip-rule="evenodd" d="M27.5333 15.6C27.8533 15.7533 28.575 15.645 29.4183 16.475C29.5267 16.5817 29.3833 16.5067 29.5333 16.56C29.595 16.4317 29.595 16.1283 29.5333 16C30.0533 16.1217 30.8133 17 31.6933 17C32.0067 17 32.3883 16.685 32.4533 16.44C31.91 16.5667 31.67 16.5833 31.01 16.2033C30.7217 16.0367 30.4983 15.8733 30.1867 15.7067C29.77 15.485 28.8333 14.96 28.3333 14.96C28.2833 14.96 27.5833 15.5317 27.5333 15.6Z" fill="#999999"/>
<path fill-rule="evenodd" clip-rule="evenodd" d="M17.5333 11.88C19.0083 11.88 20.0683 11.5567 20.79 10.4567C20.9417 10.225 21.205 9.66333 21.2133 9.32H19.9333C19.8783 9.98667 19.4567 10.86 19.0133 11.2C18.6717 11.4617 18.415 11.645 17.8983 11.685C17.6917 11.7017 17.645 11.6667 17.5333 11.8783V11.88Z" fill="#999999"/>
<path fill-rule="evenodd" clip-rule="evenodd" d="M26.1733 11.88C25.9683 11.4917 25.5967 11.8717 24.8917 11.36C24.8167 11.3067 24.7967 11.28 24.715 11.2167C24.2467 10.8533 23.8317 10.02 23.7733 9.31833H22.4933C22.5083 9.96667 23.1 10.8633 23.6767 11.255C24.3533 11.7133 25.0583 11.8783 26.1733 11.8783V11.88Z" fill="#999999"/>
<path fill-rule="evenodd" clip-rule="evenodd" d="M31.9733 7.64C32.9333 7.64 33.48 8.485 34.055 8.83833C34.8433 9.32333 35.3533 9.005 36.1633 9.17C36.565 9.25167 36.5083 9.41333 36.6933 9.48C36.645 8.90333 35.7217 9.04 34.86 8.47333C34.5683 8.28167 34.3667 8.05333 34.1233 7.81C33.6367 7.325 33.745 7.2 33.1333 7.2C32.7733 7.2 32.1117 7.43333 31.9733 7.64Z" fill="#999999"/>
<path fill-rule="evenodd" clip-rule="evenodd" d="M7.01332 9.48C7.18332 9.41833 7.16665 9.25667 7.50999 9.17667C8.30999 8.99167 8.84332 9.335 9.65165 8.83833C9.97832 8.63833 10.2317 8.33 10.5567 8.10333C10.895 7.86833 11.1817 7.64 11.7333 7.64C11.5817 7.41333 10.3967 6.91167 9.94165 7.40833C9.28665 8.125 8.96832 8.58833 7.86999 8.89667C7.52165 8.995 7.04499 9.10167 7.01332 9.48Z" fill="#999999"/>
<path fill-rule="evenodd" clip-rule="evenodd" d="M33.8133 34.48C33.5717 34.48 33.475 34.455 33.2933 34.44V35.2C33.4933 35.2 33.57 35.16 33.8133 35.16C33.75 35.925 33.5533 35.8 34.4133 35.8C34.5817 35.8 34.5117 35.7017 34.5 35.56C34.4833 35.3617 34.4917 35.3217 34.4533 35.16C35.0917 35.16 35.0133 35.4267 35.0133 34.56C35.0133 34.3967 34.89 34.455 34.8067 34.465C34.675 34.4817 34.5883 34.48 34.4533 34.48C34.4883 34.3317 34.4833 34.305 34.5 34.12C34.525 33.8367 34.6617 33.88 33.8533 33.88C33.665 33.88 33.785 34.1317 33.8133 34.48Z" fill="#999999"/>
<path fill-rule="evenodd" clip-rule="evenodd" d="M19.7733 8.96H23.9333C24.0767 8.96 24.1967 8.79167 24.2133 8.6H19.4933C19.5033 8.71167 19.5217 8.77 19.575 8.83833C19.61 8.88333 19.6933 8.96 19.7733 8.96Z" fill="#999999"/>
<path fill-rule="evenodd" clip-rule="evenodd" d="M14.1733 11.88H17.3333C17.3783 11.6883 17.4483 11.5917 17.4933 11.4H14.0133C14.05 11.5583 14.13 11.6967 14.1733 11.88Z" fill="#999999"/>
<path fill-rule="evenodd" clip-rule="evenodd" d="M26.3733 11.88H29.5333C29.5767 11.6967 29.6567 11.5583 29.6933 11.4H26.2133C26.2583 11.5917 26.3283 11.6883 26.3733 11.88Z" fill="#999999"/>
<path fill-rule="evenodd" clip-rule="evenodd" d="M13.5333 30.6C13.3667 30.6 13.3733 30.4017 13.3733 30.28C13.3733 30.0183 13.4883 30.235 13.3133 29.9817C13.245 29.8833 13.2 29.7967 13.1733 29.68H13.0933C12.9967 30.0967 12.9333 29.935 12.9333 30.56C12.9333 31.185 13.3467 31.6 13.9733 31.6C13.9733 30.975 14.0183 30.5133 14.39 29.9767C14.4433 29.9 14.4633 29.895 14.52 29.8267C14.5883 29.745 14.6017 29.7417 14.6133 29.64C14.4017 29.7517 13.805 30.0467 13.7083 30.255C13.63 30.4217 13.7083 30.6 13.5333 30.6Z" fill="#999999"/>
<path fill-rule="evenodd" clip-rule="evenodd" d="M29.7333 31.24V31.6C30.6733 31.6 30.9083 30.7433 30.7183 30.015C30.68 29.865 30.64 29.7983 30.6133 29.68H30.5333C30.5067 29.7967 30.46 29.885 30.3933 29.9817C30.2233 30.2283 30.3333 29.985 30.3333 30.36C30.3333 30.4833 30.2967 30.6 30.1733 30.6C30.005 30.6 30.07 30.44 30.01 30.2833C29.9183 30.0383 29.3133 29.7567 29.0933 29.64C29.1167 29.8467 29.7333 30.2833 29.7333 31.24Z" fill="#999999"/>
<path fill-rule="evenodd" clip-rule="evenodd" d="M33.6133 41.08C33.6133 41.5917 33.6517 41.92 34.2133 41.92C34.955 41.92 34.6817 40.1367 34.0933 40C33.8567 40.2233 33.6133 40.725 33.6133 41.08Z" fill="#999999"/>
<path fill-rule="evenodd" clip-rule="evenodd" d="M21.6133 0.64C21.55 0.61 21.1517 0.561667 21.0533 0.56V1.12C21.2333 1.07833 21.4333 1.08167 21.6133 1.04C21.6133 1.29833 21.5733 1.4 21.5733 1.68H22.1333C22.1333 1.4 22.0933 1.29833 22.0933 1.04C22.2733 1.08167 22.4733 1.07833 22.6533 1.12V0.56C22.5533 0.561667 22.1567 0.61 22.0933 0.64C22.0933 0.381667 22.1333 0.28 22.1333 0H21.5733C21.5733 0.28 21.6133 0.381667 21.6133 0.64Z" fill="#999999"/>
<path fill-rule="evenodd" clip-rule="evenodd" d="M15.3733 8.6C15.3733 9.10333 15.4567 10.0367 15.7333 10.24C16.0233 10.1617 16.0917 9.40333 16.1217 9.14833C16.29 7.77 15.59 8.08667 15.4583 8.285C15.4017 8.37 15.3733 8.46167 15.3733 8.6Z" fill="#999999"/>
<path fill-rule="evenodd" clip-rule="evenodd" d="M27.9733 10.24C28.2467 10.04 28.47 8.62 28.2483 8.285C28.1167 8.08667 27.4167 7.77 27.585 9.14833C27.6067 9.33 27.6467 9.58167 27.6933 9.76C27.7617 10.03 27.7867 10.1883 27.975 10.2383L27.9733 10.24Z" fill="#999999"/>
<path fill-rule="evenodd" clip-rule="evenodd" d="M9.33332 40.52C9.33332 41.0833 10.4933 41.2667 10.4933 39.92C10.4933 39.7533 10.53 39.48 10.4133 39.48C10.215 39.48 9.84499 39.7217 9.72332 39.83C9.53665 39.9967 9.33332 40.1867 9.33332 40.52Z" fill="#999999"/>
<path fill-rule="evenodd" clip-rule="evenodd" d="M8.49332 39.28C8.49332 39.9383 9.37832 39.6783 9.85499 39.3617C9.89499 39.335 9.90832 39.3333 9.94665 39.2933C10.24 38.9983 9.55165 38.7183 9.29165 38.7183C8.93665 38.7183 8.49165 38.9533 8.49165 39.2783L8.49332 39.28Z" fill="#999999"/>
<path fill-rule="evenodd" clip-rule="evenodd" d="M11.6917 41.04C11.9133 41.04 12.1183 40.8167 12.2133 40.6817C12.465 40.3267 12.1717 40.0983 11.72 39.65C11.5783 39.5083 11.445 39.2517 11.25 39.2C11.1917 39.4517 11.1417 39.4817 11.2467 39.64C11.92 40.6667 11.3483 41.04 11.69 41.04H11.6917Z" fill="#999999"/>
<path fill-rule="evenodd" clip-rule="evenodd" d="M27.7733 5.96C27.6533 5.89333 27.5017 5.92 27.2933 5.92V6.36C27.5517 6.3 27.4633 6.32 27.7733 6.32L27.725 6.79833H28.1733C28.1733 6.59833 28.1333 6.55333 28.1333 6.32C28.7233 6.32 28.6133 6.465 28.6133 5.92H28.2533C28.1 5.92 28.2383 5.90833 28.1333 5.96C28.1333 5.71667 28.1733 5.64 28.1733 5.44H27.7333C27.7333 5.66833 27.7733 5.71667 27.7733 5.96Z" fill="#999999"/>
<path fill-rule="evenodd" clip-rule="evenodd" d="M15.5733 5.96C15.4533 5.89333 15.3017 5.92 15.0933 5.92C15.0933 6.465 14.9833 6.32 15.5733 6.32C15.5733 6.55333 15.5333 6.6 15.5333 6.8H15.9733L15.925 6.32167C16.2383 6.32167 16.1533 6.3 16.4133 6.36V5.92H16.0533C15.9 5.92 16.0383 5.90833 15.9333 5.96C15.9333 5.71667 15.9733 5.66833 15.9733 5.44H15.5333C15.5333 5.64 15.5733 5.71667 15.5733 5.96Z" fill="#999999"/>
<path fill-rule="evenodd" clip-rule="evenodd" d="M34.8933 40.84C34.8933 41.13 34.9933 41.56 35.2533 41.56C35.4817 41.56 35.7333 41.5217 35.7333 41.2C35.7333 40.6233 34.8933 39.7433 34.8933 40.84Z" fill="#999999"/>
<path fill-rule="evenodd" clip-rule="evenodd" d="M32.5733 41C32.5733 41.4983 32.61 41.56 33.0133 41.56C33.105 41.56 33.2233 41.4533 33.2683 41.375C33.4367 41.0933 33.4133 40.32 33.1733 40.32C32.9183 40.32 32.5733 40.7417 32.5733 41Z" fill="#999999"/>
<path fill-rule="evenodd" clip-rule="evenodd" d="M10.9333 41.16C11.5417 41.16 11.1417 40.0617 10.8933 39.88C10.7683 40.1167 10.735 40.225 10.68 40.5483C10.6417 40.765 10.655 41.16 10.9333 41.16Z" fill="#999999"/>
<path fill-rule="evenodd" clip-rule="evenodd" d="M21.4533 2.48C21.4533 3.18 22.2533 3.02 22.2533 2.56C22.2533 1.92 21.4533 2.03833 21.4533 2.48Z" fill="#999999"/>
<path fill-rule="evenodd" clip-rule="evenodd" d="M4.53332 33.28C4.32165 34.1867 5.57999 34.3317 5.26832 33.6267C5.12999 33.315 4.86165 33.1517 4.53332 33.28Z" fill="#999999"/>
<path fill-rule="evenodd" clip-rule="evenodd" d="M12.0533 41.52C12.4017 41.52 12.8133 40.9933 12.8133 40.8C12.8133 40.6917 12.795 40.69 12.7733 40.6C12.5967 40.615 12.6083 40.6567 12.515 40.7817C12.2017 41.2017 12.31 41.03 12.04 41.2683C11.9667 41.3333 11.8317 41.52 12.0533 41.52Z" fill="#999999"/>
<path fill-rule="evenodd" clip-rule="evenodd" d="M12.4533 41.72V41.8C12.51 41.8133 13.0233 42.0933 13.1717 41.7183C13.2783 41.445 13.1483 41.3917 13.0933 41.16C12.905 41.21 13.0183 41.2167 12.7833 41.45C12.6783 41.555 12.6067 41.6783 12.4533 41.72Z" fill="#999999"/>
<path fill-rule="evenodd" clip-rule="evenodd" d="M28.2533 7.56C28.2533 6.99 27.6433 7.115 27.6233 7.485C27.6 7.93333 28.2533 7.87167 28.2533 7.56Z" fill="#999999"/>
<path fill-rule="evenodd" clip-rule="evenodd" d="M15.4533 7.48C15.4533 7.95167 16.1033 7.89333 16.0833 7.485C16.0617 7.075 15.4533 7.06833 15.4533 7.48Z" fill="#999999"/>
<path fill-rule="evenodd" clip-rule="evenodd" d="M33.8533 38.8C33.8533 39.2017 34.4133 39.26 34.4133 38.76C34.4133 38.4733 33.8533 38.425 33.8533 38.8Z" fill="#999999"/>
<path fill-rule="evenodd" clip-rule="evenodd" d="M32.7733 38.8C32.7733 39.2433 33.3333 39.1783 33.3333 38.84C33.3333 38.3967 32.7733 38.4617 32.7733 38.8Z" fill="#999999"/>
<path fill-rule="evenodd" clip-rule="evenodd" d="M36.3333 38.52C35.9867 38.52 35.975 39.1333 36.3683 39.1083C36.5217 39.0983 36.6433 38.9533 36.6367 38.8C36.6317 38.67 36.4967 38.52 36.3333 38.52Z" fill="#999999"/>
<path fill-rule="evenodd" clip-rule="evenodd" d="M33.8533 36.6C33.8533 37.0217 34.4133 37.0083 34.4133 36.64C34.4133 36.1983 33.8533 36.275 33.8533 36.6Z" fill="#999999"/>
<path fill-rule="evenodd" clip-rule="evenodd" d="M31.6933 38.8C31.6933 39.1767 32.2533 39.2717 32.2533 38.76C32.2533 38.4733 31.6933 38.425 31.6933 38.8Z" fill="#999999"/>
<path fill-rule="evenodd" clip-rule="evenodd" d="M34.9733 38.8C34.9733 39.2417 35.5333 39.165 35.5333 38.84C35.5333 38.6683 35.41 38.52 35.2533 38.52C35.1183 38.52 34.9733 38.665 34.9733 38.8Z" fill="#999999"/>
<path fill-rule="evenodd" clip-rule="evenodd" d="M33.8533 37.72C33.8533 38.075 34.4133 38.1117 34.4133 37.72C34.4133 37.2983 33.8533 37.3817 33.8533 37.72Z" fill="#999999"/>
<path fill-rule="evenodd" clip-rule="evenodd" d="M2.81332 31.92C2.95499 32.015 3.05832 32.2 3.29332 32.2C3.52832 32.2 3.51499 31.8167 3.13332 31.56C3.08665 31.5933 2.84999 31.865 2.81332 31.92Z" fill="#999999"/>
<path fill-rule="evenodd" clip-rule="evenodd" d="M23.8933 8.36H23.9733C24.2233 8.36 24.2233 7.92 23.9733 7.92H23.8933C23.6433 7.92 23.6433 8.36 23.8933 8.36Z" fill="#999999"/>
<path fill-rule="evenodd" clip-rule="evenodd" d="M22.6933 7.96C22.6117 8.31333 22.7 8.40167 23.0533 8.32C23.0933 8.23833 23.1233 8.18167 23.1083 8.09667C23.07 7.86833 22.845 7.9 22.6933 7.96Z" fill="#999999"/>
<path fill-rule="evenodd" clip-rule="evenodd" d="M20.8133 8.36C21.0017 8.36 21.2033 7.92 20.7333 7.92C20.505 7.92 20.4633 8.36 20.8133 8.36Z" fill="#999999"/>
<path fill-rule="evenodd" clip-rule="evenodd" d="M19.5333 8.08C19.5333 8.54167 19.9733 8.37167 19.9733 8.12C19.9733 7.835 19.5333 7.86333 19.5333 8.08Z" fill="#999999"/>
<path fill-rule="evenodd" clip-rule="evenodd" d="M21.6133 8.08C21.6133 8.45833 22.0533 8.45833 22.0533 8.08C22.0533 7.85667 21.6133 7.85667 21.6133 8.08Z" fill="#999999"/>
<path fill-rule="evenodd" clip-rule="evenodd" d="M9.33332 38.36C9.54499 38.36 9.56999 38.3617 9.73332 38.4C9.73332 38.2117 9.79165 37.9617 9.60332 38.0217C9.47332 38.0617 9.36499 38.23 9.33332 38.36Z" fill="#999999"/>
<path d="M26.4517 26.03C26.2683 25.8483 26.0267 25.7483 25.775 25.7533C25.555 25.7533 25.3233 25.8283 25.0933 25.97C25.0517 25.9933 25.0283 26.0417 25.035 26.0917C25.0383 26.105 25.2033 27.3117 25.0767 27.8283C24.9817 28.2183 24.6717 28.675 24.1067 28.675C23.98 28.675 23.8533 28.6533 23.7317 28.615C23.7317 28.615 23.7267 28.615 23.7267 28.6133L24.1533 28.305C24.205 28.2683 24.22 28.195 24.1867 28.1383C24.1783 28.125 24.1667 28.1133 24.1533 28.1033L23.3067 27.4833C23.5733 27.27 23.7433 27.1167 23.765 27.0983C23.79 27.0767 23.805 27.045 23.8067 27.01C23.8067 26.9767 23.7933 26.9433 23.77 26.92L23.62 26.7583C23.5983 26.7367 23.57 26.7233 23.54 26.7217C23.5133 26.7217 23.4883 26.7317 23.4683 26.7467C23.4583 26.7517 23.235 26.935 22.8967 27.185L22.5567 26.935L23.8867 25.9633L23.99 26.2433C24.0067 26.2883 24.0467 26.3183 24.0917 26.32H24.0967C24.1383 26.32 24.1767 26.295 24.1967 26.255L24.83 25.0183C24.86 24.9583 24.84 24.885 24.785 24.8517C24.7683 24.8417 24.7483 24.8367 24.7283 24.8367H24.7117L23.4017 25.0467C23.3567 25.0517 23.32 25.0867 23.3067 25.1317C23.2967 25.1767 23.31 25.225 23.34 25.2567L23.5533 25.4567L22.0433 26.5583L20.5367 25.455L20.7483 25.255C20.78 25.2233 20.7933 25.1733 20.78 25.13C20.77 25.0833 20.7333 25.0483 20.6883 25.045L19.3783 24.835H19.3617C19.3233 24.835 19.2883 24.8533 19.2667 24.8867C19.2433 24.925 19.24 24.975 19.26 25.0167L19.89 26.255C19.9117 26.2933 19.95 26.3183 19.9917 26.32H19.9983C20.0433 26.3167 20.0817 26.2867 20.0983 26.2433L20.2033 25.9633L21.5333 26.935L21.1933 27.185C20.8517 26.935 20.6283 26.7517 20.6233 26.7467C20.6033 26.7317 20.5783 26.7217 20.5533 26.7217C20.5217 26.7217 20.4917 26.735 20.47 26.7583L20.3167 26.92C20.295 26.945 20.2833 26.9767 20.2833 27.01C20.285 27.0433 20.3 27.075 20.3217 27.0983C20.3467 27.1183 20.5133 27.2717 20.7817 27.4833L19.9317 28.105C19.9017 28.1283 19.8833 28.165 19.8833 28.205C19.8833 28.245 19.9033 28.2817 19.9333 28.305L20.36 28.6133C20.36 28.6133 20.3567 28.615 20.355 28.615C20.2333 28.6533 20.1083 28.6733 19.9817 28.675C19.4167 28.675 19.1033 28.2183 19.0083 27.8283C18.8817 27.31 19.05 26.1033 19.05 26.0917C19.0583 26.0433 19.035 25.9933 18.9933 25.97C18.76 25.8283 18.53 25.7533 18.3117 25.7533C18.06 25.7483 17.8167 25.8483 17.6317 26.0317C17.6117 26.05 17.6017 26.0767 17.6 26.105C17.5933 26.18 17.4633 27.9233 18.2233 28.805C18.505 29.13 18.87 29.295 19.315 29.295C19.3967 29.295 19.4783 29.2917 19.56 29.28C19.99 29.22 20.4133 29.11 20.8217 28.95L21.525 29.455L19.965 30.5767C19.9333 30.6 19.915 30.6383 19.915 30.68C19.915 30.72 19.9333 30.7583 19.9667 30.78L21.53 31.93L20.1983 32.91L20.0967 32.635C20.08 32.5917 20.0417 32.5617 19.9967 32.5583C19.9967 32.5583 19.9944 32.5578 19.99 32.5567C19.9483 32.5567 19.91 32.5817 19.8883 32.6217L19.2583 33.8617C19.2383 33.9017 19.2417 33.95 19.265 33.9883C19.2867 34.0217 19.3217 34.0417 19.36 34.04H19.3767L20.6867 33.835C20.73 33.8283 20.7667 33.795 20.7783 33.75C20.7917 33.705 20.7783 33.655 20.7467 33.6217L20.53 33.4183L22.0417 32.3067L23.5567 33.4217L23.34 33.625C23.3067 33.6583 23.2933 33.7083 23.3067 33.7533C23.32 33.7983 23.3567 33.8317 23.4017 33.8383L24.7117 34.0433H24.7283C24.7917 34.0433 24.8433 33.99 24.8433 33.9233C24.8433 33.9033 24.8383 33.8833 24.83 33.865L24.1967 32.625C24.1767 32.585 24.1383 32.5617 24.0967 32.56C24.0933 32.56 24.0917 32.56 24.0917 32.5617C24.0467 32.565 24.0067 32.595 23.99 32.6383L23.885 32.91L22.5533 31.9283L24.1183 30.7783C24.15 30.755 24.1683 30.7183 24.17 30.6783C24.17 30.6367 24.15 30.5983 24.1183 30.575L22.5583 29.4533L23.265 28.9483C23.6717 29.1083 24.0933 29.22 24.5233 29.2783C24.605 29.29 24.6867 29.295 24.7683 29.2933C25.2117 29.2933 25.58 29.1283 25.86 28.8033C26.62 27.9217 26.49 26.1783 26.4833 26.1033C26.48 26.0767 26.4683 26.0517 26.4517 26.0317V26.03ZM22.0417 27.3117L22.3767 27.5533C22.2717 27.6267 22.16 27.6983 22.0417 27.7717C21.9267 27.6967 21.8167 27.625 21.7083 27.5533L22.0417 27.3117ZM20.8233 28.2017L21.2867 27.8633C21.3767 27.925 21.4717 27.99 21.5733 28.055C21.3917 28.1583 21.2117 28.255 21.025 28.3433L20.8233 28.2V28.2017ZM23.2317 30.68L22.0417 31.555L20.855 30.68L22.0417 29.8233L23.2317 30.68ZM22.0417 29.0817L21.4667 28.6633C21.6683 28.5633 21.86 28.4567 22.0417 28.3517C22.225 28.4567 22.4167 28.5633 22.62 28.6633L22.0417 29.0817ZM23.0617 28.3467C22.8783 28.2583 22.6933 28.1617 22.5117 28.0583C22.6117 27.9917 22.705 27.9267 22.7983 27.8667L23.2633 28.205L23.0617 28.3483V28.3467Z" fill="#999999"/>
</g>
</g>
<defs>
<clipPath id="clip0_346_1814">
<rect width="43.2433" height="48" fill="white" transform="translate(0.25)"/>
</clipPath>
</defs>
</svg>
