<svg width="32" height="48" viewBox="0 0 32 48" fill="none" xmlns="http://www.w3.org/2000/svg">
<g id="SVG">
<g id="Vector">
<path fill-rule="evenodd" clip-rule="evenodd" d="M4.2952 36.6782C4.72174 36.6782 5.16501 36.7119 5.57065 36.872C5.95119 37.0111 6.28574 37.2513 6.5701 37.6305C6.84191 38.0013 7.04683 38.4311 7.18066 38.9367C7.31025 39.4297 7.38135 39.9901 7.38135 40.6137C7.38135 41.2963 7.30193 41.9157 7.13464 42.4719C7.1221 42.5561 7.08862 42.6404 7.05099 42.7331C6.89631 43.1839 6.67883 43.5842 6.41956 43.9466C6.09338 44.3763 5.72538 44.705 5.28629 44.9199C4.86393 45.1306 4.3872 45.2402 3.85611 45.2402C3.40448 45.2402 2.9863 45.1475 2.5974 44.9494V44.9578C2.54303 44.9241 2.47612 44.8946 2.41757 44.8483C2.20849 44.7261 2.01613 44.5786 1.83213 44.3974V48H0.0799529V36.6909C1.48504 36.6909 2.89012 36.6782 4.2952 36.6782ZM1.8363 42.83C2.14994 43.1629 2.45521 43.4115 2.76048 43.5842C3.06575 43.7527 3.37103 43.8371 3.66793 43.8371H3.67212C3.96484 43.8371 4.22829 43.7738 4.44575 43.6432C4.48338 43.6264 4.5252 43.6011 4.54611 43.58C4.73011 43.4494 4.88484 43.2724 5.02701 43.0617H5.03538C5.11483 42.9227 5.18174 42.7836 5.24447 42.6151C5.3072 42.455 5.36574 42.278 5.40338 42.0884C5.48284 41.705 5.53302 41.2668 5.53302 40.7611C5.53302 39.851 5.39502 39.1642 5.12738 38.7261C4.87647 38.3131 4.50011 38.1109 3.99411 38.1109H1.8363V42.83Z" fill="#999999"/>
<path fill-rule="evenodd" clip-rule="evenodd" d="M29.2024 36.6907H31.1929L27.8851 40.4702L32 45.063H29.6122L25.7064 40.6894L29.2024 36.6907Z" fill="#999999"/>
<path fill-rule="evenodd" clip-rule="evenodd" d="M23.8077 33.982H25.5808V45.0635H23.8077V33.982Z" fill="#999999"/>
<path fill-rule="evenodd" clip-rule="evenodd" d="M18.4716 36.6913V37.8754L18.5134 37.8206C18.6347 37.6815 18.7518 37.5467 18.8856 37.4329C19.5463 36.822 20.3492 36.5102 21.2817 36.5102C21.5034 36.5102 21.7418 36.527 22.001 36.5565C22.2477 36.5944 22.5154 36.6408 22.7997 36.6955L22.921 36.7292V39.2995H21.5159V38.145C21.4657 38.1366 21.3989 38.124 21.3445 38.1197C21.2567 38.1113 21.1689 38.1029 21.0852 38.1029C20.8134 38.1029 20.575 38.1324 20.3408 38.1956C20.1108 38.2588 19.9018 38.3473 19.6968 38.4694C19.4961 38.5959 19.2996 38.7602 19.0863 38.9666C18.8856 39.1773 18.6723 39.4259 18.4674 39.7124V45.0594H16.6985V36.6913H18.4716Z" fill="#999999"/>
<path fill-rule="evenodd" clip-rule="evenodd" d="M13.1312 44.1953C12.7381 44.5071 12.3408 44.7473 11.9394 44.9158C11.4878 45.1054 11.0319 45.2023 10.5761 45.2023C9.79412 45.2023 9.16687 44.9832 8.665 44.5366C8.40574 44.309 8.21759 44.052 8.09215 43.7739C7.97088 43.479 7.89555 43.1672 7.89555 42.8175C7.89555 42.375 7.99596 41.9748 8.19666 41.6124C8.23013 41.5576 8.2636 41.5028 8.30123 41.4396C8.49355 41.1531 8.74864 40.8919 9.079 40.677L9.08323 40.6686C9.26722 40.5379 9.4763 40.4241 9.70209 40.3315C9.91955 40.2303 10.1537 40.1418 10.4047 40.0787C10.9065 39.948 11.4668 39.8806 12.0858 39.8806H12.8259V39.3371C12.8259 39.0758 12.7924 38.8483 12.7381 38.663C12.7256 38.6292 12.7172 38.6082 12.7089 38.5786C12.6586 38.4396 12.5833 38.3343 12.4997 38.2542V38.2416H12.483C12.4621 38.2121 12.4244 38.1868 12.3868 38.1699C12.3617 38.1362 12.3115 38.1152 12.2739 38.0941C12.0523 37.9846 11.7428 37.9213 11.3497 37.9213C10.9399 37.9213 10.5259 37.9846 10.1119 38.0983C9.68123 38.2121 9.25884 38.389 8.81559 38.6166L8.58558 38.7388V37.1166L8.69431 37.0829H8.70263C8.85322 37.0281 8.99958 36.9733 9.12918 36.9354C9.27554 36.8848 9.41774 36.8469 9.56411 36.809C10.2875 36.6109 10.9859 36.5141 11.6424 36.5141C12.7088 36.5141 13.4574 36.7331 13.909 37.1714C13.9759 37.2303 14.0344 37.2978 14.0888 37.3778C14.1516 37.4537 14.1975 37.5337 14.2478 37.6222C14.4735 38.0562 14.5864 38.6376 14.5864 39.3877V42.7543C14.5864 42.9986 14.6032 43.1883 14.6241 43.3484C14.6534 43.4874 14.6785 43.5928 14.7245 43.6644C14.7286 43.6812 14.737 43.6981 14.7496 43.7107C14.7704 43.7233 14.7788 43.7402 14.7955 43.7486C14.8792 43.816 15.0004 43.854 15.1761 43.854C15.2054 43.854 15.2639 43.8414 15.3266 43.8329C15.3977 43.8203 15.4897 43.8034 15.5943 43.7823L15.749 43.7444V44.979C15.6988 45 15.6486 45.0127 15.6027 45.0169C15.5316 45.0379 15.4772 45.059 15.406 45.0759C15.1092 45.1602 14.8457 45.1981 14.6534 45.1981C14.3899 45.1981 14.1557 45.1518 13.955 45.0675C13.8797 45.0296 13.8128 44.9959 13.7585 44.9579C13.4866 44.7894 13.2818 44.5366 13.1312 44.1953ZM12.8217 42.9101V41.111H12.5416C11.563 41.111 10.8479 41.2374 10.3712 41.5029C9.93632 41.7388 9.71047 42.0927 9.71047 42.573C9.71047 42.75 9.73972 42.9059 9.79412 43.045C9.80666 43.0619 9.81505 43.0829 9.82336 43.1082C9.87776 43.2177 9.94887 43.3146 10.045 43.399V43.4031C10.0743 43.4327 10.1119 43.4579 10.1454 43.479C10.1788 43.5085 10.2164 43.5253 10.2499 43.5548C10.4423 43.6602 10.6765 43.7192 10.9525 43.7192C11.5254 43.7234 12.1526 43.4453 12.8217 42.9101Z" fill="#999999"/>
<path fill-rule="evenodd" clip-rule="evenodd" d="M31.2464 4.28094L26.981 0H0V27.1898L4.2487 31.4665H31.2464V4.28094ZM9.97821 4.10342H13.424V7.73544H9.97821V4.10342ZM26.9226 26.9881C26.2117 27.1145 25.5049 27.2072 24.8107 27.2704C24.0999 27.3378 23.4182 27.3715 22.7533 27.3715C21.5782 27.3715 20.583 27.2578 19.7717 27.0513C18.9353 26.8238 18.2829 26.4824 17.8271 26.0274H17.823C17.7059 25.8968 17.5804 25.7535 17.4592 25.585C17.3546 25.4249 17.2584 25.2479 17.1622 25.0625C16.7189 24.1187 16.4889 22.7872 16.4889 21.0723V7.73231H19.9473V10.6438H26.864V13.4416H19.9473V21.5653C19.9473 21.9951 19.9599 22.3575 19.985 22.6481L19.9975 22.783H20.0058C20.0226 22.9937 20.0602 23.1622 20.0979 23.2886L20.1058 23.3106C20.116 23.3395 20.1273 23.3715 20.1439 23.3982C20.1514 23.4184 20.1634 23.4386 20.1754 23.4588C20.1835 23.4723 20.1915 23.4858 20.1982 23.4993L20.2024 23.5035C20.3111 23.6847 20.4784 23.8532 20.6916 24.0092C20.9802 24.1987 21.3524 24.3462 21.7915 24.4516C22.2348 24.5442 22.7575 24.6075 23.3596 24.6075H23.3806C23.9493 24.6075 24.5306 24.5738 25.0992 24.5064V24.5021L25.3837 24.4726V24.4768C25.852 24.4094 26.3287 24.3209 26.8054 24.2114L27.1818 24.1229V26.9375L26.9226 26.9881ZM4.31086 13.4323H9.98554V27.0041H13.4272V10.6725H4.31086V13.4323Z" fill="#999999"/>
</g>
</g>
</svg>
