<svg width="17" height="16" viewBox="0 0 17 16" fill="none" xmlns="http://www.w3.org/2000/svg">
<g id="telegram-2-fill">
<path id="Vector" d="M1.93171 7.87294C5.42995 6.34884 7.76269 5.34404 8.92982 4.85856C12.2624 3.47245 12.9548 3.23167 13.4062 3.22372C13.5054 3.22197 13.7274 3.24657 13.8712 3.36324C13.9926 3.46174 14.026 3.59482 14.042 3.68821C14.058 3.78161 14.0778 3.99437 14.062 4.16061C13.8814 6.0581 13.1 10.6628 12.7025 12.788C12.5343 13.6873 12.2031 13.9887 11.8824 14.0183C11.1856 14.0824 10.6564 13.5577 9.98142 13.1153C8.92529 12.423 8.32862 11.992 7.30342 11.3164C6.11865 10.5357 6.88669 10.1065 7.56189 9.40528C7.73862 9.22174 10.809 6.42899 10.8684 6.17564C10.8758 6.14396 10.8828 6.02585 10.8126 5.96348C10.7424 5.90112 10.6389 5.92244 10.5642 5.93941C10.4582 5.96345 8.77095 7.07861 5.50245 9.28501C5.02354 9.61381 4.58976 9.77408 4.20111 9.76568C3.77264 9.75641 2.94845 9.52341 2.33575 9.32428C1.58425 9.07994 0.986975 8.95081 1.03898 8.53594C1.06607 8.31988 1.36365 8.09888 1.93171 7.87294Z" fill="#1A5DE6"/>
</g>
</svg>
